<svg width="97" height="30" viewBox="0 0 97 30" fill="none" xmlns="http://www.w3.org/2000/svg">
<rect x="7.76562" width="2" height="30" transform="rotate(15 7.76562 0)" fill="white"/>
<rect x="14.4609" width="2" height="30" transform="rotate(15 14.4609 0)" fill="white"/>
<rect x="41.2461" width="2" height="30" transform="rotate(15 41.2461 0)" fill="white"/>
<rect x="21.1562" width="2" height="30" transform="rotate(15 21.1562 0)" fill="white"/>
<rect x="47.9453" width="2" height="30" transform="rotate(15 47.9453 0)" fill="white"/>
<rect x="27.8516" width="2" height="30" transform="rotate(15 27.8516 0)" fill="white"/>
<rect x="34.5508" width="2" height="30" transform="rotate(15 34.5508 0)" fill="white"/>
<rect x="54.6406" width="2" height="30" transform="rotate(15 54.6406 0)" fill="white"/>
<rect x="61.3359" width="2" height="30" transform="rotate(15 61.3359 0)" fill="white"/>
<rect x="88.1211" width="2" height="30" transform="rotate(15 88.1211 0)" fill="white"/>
<rect x="68.0312" width="2" height="30" transform="rotate(15 68.0312 0)" fill="white"/>
<rect x="94.8203" width="2" height="30" transform="rotate(15 94.8203 0)" fill="white"/>
<rect x="74.7266" width="2" height="30" transform="rotate(15 74.7266 0)" fill="white"/>
<rect x="81.4258" width="2" height="30" transform="rotate(15 81.4258 0)" fill="white"/>
</svg>
