<svg width="92" height="31" viewBox="0 0 92 31" fill="none" xmlns="http://www.w3.org/2000/svg">
<path d="M26.2134 9.25206C25.4238 7.83558 24.362 6.58909 23.0891 5.58423C21.8163 4.57936 20.3574 3.83592 18.7963 3.39662C17.2352 2.95732 15.6027 2.83082 13.9926 3.0244C12.3824 3.21797 10.8264 3.7278 9.41395 4.52459C8.00147 5.32139 6.76036 6.38943 5.76193 7.66737C4.7635 8.9453 4.02743 10.4079 3.59602 11.9712C3.16461 13.5345 3.04636 15.1676 3.24806 16.7768C3.44976 18.3859 3.96744 19.9393 4.77135 21.3477M26.2134 9.25206C27.7978 12.0942 28.1924 15.448 27.311 18.5802C26.4296 21.7124 24.3438 24.3682 21.5098 25.967C18.6757 27.5657 15.3239 27.9772 12.1873 27.1116C9.05066 26.246 6.38435 24.1737 4.77135 21.3477M26.2134 9.25206L4.76837 21.3469" stroke="white" stroke-width="3" stroke-linecap="round" stroke-linejoin="round"/>
<path d="M56.1587 9.25206C55.3691 7.83558 54.3073 6.58909 53.0345 5.58423C51.7616 4.57936 50.3027 3.83592 48.7416 3.39662C47.1805 2.95732 45.548 2.83082 43.9379 3.0244C42.3277 3.21797 40.7717 3.7278 39.3593 4.52459C37.9468 5.32139 36.7057 6.38943 35.7072 7.66737C34.7088 8.9453 33.9727 10.4079 33.5413 11.9712C33.1099 13.5345 32.9917 15.1676 33.1934 16.7768C33.3951 18.3859 33.9127 19.9393 34.7167 21.3477M56.1587 9.25206C57.7431 12.0942 58.1378 15.448 57.2563 18.5802C56.3749 21.7124 54.2891 24.3682 51.4551 25.967C48.621 27.5657 45.2693 27.9772 42.1326 27.1116C38.996 26.246 36.3297 24.1737 34.7167 21.3477M56.1587 9.25206L34.7137 21.3469" stroke="white" stroke-width="3" stroke-linecap="round" stroke-linejoin="round"/>
<path d="M87.0689 9.25206C86.2793 7.83558 85.2175 6.58909 83.9446 5.58423C82.6717 4.57936 81.2128 3.83592 79.6517 3.39662C78.0907 2.95732 76.4582 2.83082 74.848 3.0244C73.2379 3.21797 71.6819 3.7278 70.2694 4.52459C68.8569 5.32139 67.6158 6.38943 66.6174 7.66737C65.619 8.9453 64.8829 10.4079 64.4515 11.9712C64.0201 13.5345 63.9018 15.1676 64.1035 16.7768C64.3052 18.3859 64.8229 19.9393 65.6268 21.3477M87.0689 9.25206C88.6533 12.0942 89.0479 15.448 88.1665 18.5802C87.2851 21.7124 85.1993 24.3682 82.3652 25.967C79.5312 27.5657 76.1794 27.9772 73.0428 27.1116C69.9061 26.246 67.2398 24.1737 65.6268 21.3477M87.0689 9.25206L65.6238 21.3469" stroke="white" stroke-width="3" stroke-linecap="round" stroke-linejoin="round"/>
</svg>
