<svg width="1600" height="441" viewBox="0 0 1600 441" fill="none" xmlns="http://www.w3.org/2000/svg">
<path d="M0 84.6281L41.4061 440.983H72.9166L44.8889 148.091L116.973 440.983H148.202L232.413 14.5004L149.319 0L132.029 397.625L65.6664 77.5188L0 84.6281Z" fill="white"/>
<path d="M679.16 269.992L669.055 402.141H620.719L599.112 269.992H679.16ZM599.112 440.98H687.228L714.424 231.153H563.848L599.112 440.98Z" fill="white"/>
<path d="M749.683 402.143L759.787 269.994H808.123L829.733 402.143H749.683ZM829.733 231.155H741.617L714.421 440.982H864.995L829.733 231.155Z" fill="white"/>
<path d="M991.041 166.232L999.118 201.792H1098.86L1116.37 436.969H1081.97L1071.65 237.704L1004.08 239.709L1020.33 344.15L989.843 345.153L963.612 205.83L897.967 208.107L941.929 436.969H897.778L858.559 204.448L745.404 203.995L749.681 171.194L991.041 166.232Z" fill="white"/>
<path d="M1446.05 216.201L1427.11 436.959H1399.43L1409.38 254.065L1324.65 243.53L1354.81 382.782H1319.84L1281.85 195.177L1446.05 216.201Z" fill="white"/>
<path d="M220.623 405.446L257.321 197.779L328.928 193.307L357.279 401.877L220.623 405.446ZM355.788 161.975L232.394 168.236L174.953 440.979H399.641L355.788 161.975Z" fill="white"/>
<path d="M258.212 193.307L366.977 409.712L341.762 421.872L242.102 205.241L258.212 193.307Z" fill="white"/>
<path d="M325.094 188.707L205.397 403.969L229.586 420.995L340.397 194.347L325.094 188.707Z" fill="white"/>
<path d="M723.039 172.143L718.049 204.044L525.644 205.155L569.145 440.983H532.472L515.155 347.422L448.318 354.821L464.58 440.983H430.999L376.277 136.827L239.133 138.996L245.093 108.558L396.385 104.683L442.136 322.46L509.542 313.461L481.926 175.07L723.039 172.143Z" fill="white"/>
<path d="M1206.97 399.173H1167.41L1157.75 238.612L1232.24 245.881L1206.97 399.173ZM1362.33 408.009H1297.56L1263.79 217.01L1123.01 201.507L1142.74 436.983H1229.5L1250.59 301.357L1273.24 436.983H1368.59L1362.33 408.009Z" fill="white"/>
<path d="M1600 437.326L1455.13 436.951L1457.73 406.758L1564.82 407.512L1557.92 357.305L1463.18 343.255L1460.82 342.713L1470.66 220.15L1473.69 220.476L1578.94 234.808L1582.09 271.181L1497.93 256.849L1495.22 314.389L1585.68 328.738L1600 437.326Z" fill="white"/>
</svg>
