<svg width="147" height="41" viewBox="0 0 147 41" fill="none" xmlns="http://www.w3.org/2000/svg">
<path d="M0 7.7752L3.80418 40.5153H6.69921L4.12416 13.6059L10.7469 40.5153H13.6161L21.3529 1.33222L13.7187 0L12.1302 36.5318L6.0331 7.12204L0 7.7752Z" fill="#37F4A6"/>
<path d="M62.3978 24.8057L61.4694 36.9468H57.0285L55.0434 24.8057H62.3978ZM55.0434 40.5152H63.1391L65.6377 21.2373H51.8035L55.0434 40.5152Z" fill="#37F4A6"/>
<path d="M68.8771 36.9468L69.8054 24.8057H74.2464L76.2317 36.9468H68.8771ZM76.2317 21.2373H68.1361L65.6375 40.5152H79.4714L76.2317 21.2373Z" fill="#37F4A6"/>
<path d="M91.0519 15.2725L91.7939 18.5395H100.958L102.566 40.1464H99.4063L98.4575 21.839L92.2499 22.0232L93.7432 31.6187L90.9418 31.7108L88.5319 18.9106L82.5007 19.1197L86.5397 40.1464H82.4833L78.8801 18.7836L68.484 18.742L68.877 15.7284L91.0519 15.2725Z" fill="#37F4A6"/>
<path d="M132.856 19.8635L131.116 40.1456H128.573L129.487 23.3422L121.702 22.3743L124.473 35.1681H121.261L117.77 17.9319L132.856 19.8635Z" fill="#37F4A6"/>
<path d="M20.2697 37.2505L23.6414 18.1711L30.2203 17.7602L32.825 36.9225L20.2697 37.2505ZM32.688 14.8816L21.3512 15.4568L16.0739 40.5151H36.7171L32.688 14.8816Z" fill="#37F4A6"/>
<path d="M23.7232 17.7602L33.716 37.6424L31.3994 38.7596L22.2431 18.8567L23.7232 17.7602Z" fill="#37F4A6"/>
<path d="M29.868 17.3375L18.8708 37.1148L21.0933 38.6791L31.274 17.8558L29.868 17.3375Z" fill="#37F4A6"/>
<path d="M66.4292 15.8156L65.9708 18.7465L48.2936 18.8486L52.2902 40.5153H48.9208L47.3299 31.9193L41.1892 32.5992L42.6833 40.5153H39.598L34.5704 12.571L21.9703 12.7702L22.5179 9.97377L36.4179 9.61768L40.6212 29.6259L46.8142 28.7992L44.277 16.0846L66.4292 15.8156Z" fill="#37F4A6"/>
<path d="M110.891 36.674H107.256L106.368 21.9224L113.212 22.5903L110.891 36.674ZM125.164 37.4858H119.213L116.11 19.9378L103.177 18.5134L104.989 40.1477H112.96L114.898 27.6871L116.979 40.1477H125.74L125.164 37.4858Z" fill="#37F4A6"/>
<path d="M147 40.1793L133.69 40.1449L133.929 37.3709L143.768 37.4401L143.134 32.8274L134.43 31.5365L134.213 31.4867L135.117 20.2263L135.396 20.2562L145.065 21.573L145.354 24.9147L137.622 23.598L137.373 28.8845L145.684 30.2028L147 40.1793Z" fill="#37F4A6"/>
</svg>
