<svg width="217" height="55" viewBox="0 0 217 55" fill="none" xmlns="http://www.w3.org/2000/svg">
<rect width="217" height="55" fill="#37F4A6"/>
<path d="M51.234 18.45C48.723 18.45 47.562 18.45 47.022 18.45H42.81V30.411V36H47.022V30.411C48.21 30.411 49.614 30.411 51.18 30.411C55.824 30.411 57.498 26.928 57.498 24.444C57.498 21.744 55.554 18.45 51.234 18.45ZM53.205 25.929C53.016 26.118 52.827 26.253 52.584 26.388C52.206 26.55 51.747 26.631 51.18 26.631H47.022V22.23H51.234C52.098 22.23 52.719 22.446 53.151 22.932C53.556 23.391 53.718 24.012 53.718 24.444C53.718 24.849 53.583 25.47 53.205 25.929ZM63.3169 32.22V18.45H59.1049V36H63.2899H63.3169H71.7679V32.22H63.3169ZM86.368 36H91.228L81.805 18.45L72.355 36H77.215L78.484 33.543H85.099L86.368 36ZM80.185 30.249L81.805 27.171L83.398 30.249H80.185ZM103.515 18.45H97.9801L94.3621 22.851L90.7171 18.45H85.1821L92.2291 26.928V36H96.4411V26.928L103.515 18.45ZM123.631 18.45V27.414L111.994 18.45V36H116.206V27.441L127.843 36V18.45H123.631ZM169.528 18.45L164.938 27.225L160.348 18.45H155.488L159.511 25.929L158.836 27.225L154.246 18.45H149.386L158.836 36L161.887 30.33L164.938 36L174.388 18.45H169.528Z" fill="#1E1E1E"/>
<path d="M135.05 34.2604L137.501 20.3912L142.283 20.0925L144.177 34.022L135.05 34.2604ZM144.077 18L135.836 18.4181L132 36.6335H147.006L144.077 18Z" fill="#1E1E1E"/>
<path d="M137.561 20.0925L144.825 34.5453L143.141 35.3574L136.485 20.8895L137.561 20.0925Z" fill="#1E1E1E"/>
<path d="M142.027 19.7853L134.033 34.1617L135.649 35.2988L143.049 20.162L142.027 19.7853Z" fill="#1E1E1E"/>
</svg>
