<svg width="343" height="95" viewBox="0 0 343 95" fill="none" xmlns="http://www.w3.org/2000/svg">
<path d="M0 18.1421L8.87642 94.5356H15.6315L9.62305 31.747L25.0762 94.5356H31.7708L49.8235 3.10852L32.0102 0L28.3038 85.2409L14.0772 16.6181L0 18.1421Z" fill="white"/>
<path d="M145.595 57.8794L143.429 86.2088H133.067L128.435 57.8794H145.595ZM128.435 94.535H147.325L153.155 49.5532H120.875L128.435 94.535Z" fill="white"/>
<path d="M160.714 86.2096L162.88 57.8803H173.242L177.874 86.2096H160.714ZM177.874 49.5541H158.984L153.154 94.5358H185.434L177.874 49.5541Z" fill="white"/>
<path d="M212.454 35.636L214.186 43.2591H235.568L239.321 93.6753H231.948L229.734 50.9578L215.25 51.3878L218.734 73.7772L212.197 73.9922L206.574 44.1249L192.502 44.6129L201.926 93.6753H192.461L184.053 43.8285L159.796 43.7315L160.713 36.6999L212.454 35.636Z" fill="white"/>
<path d="M309.998 46.3482L305.937 93.6733H300.004L302.137 54.4653L283.972 52.2068L290.437 82.0591H282.942L274.798 41.8412L309.998 46.3482Z" fill="white"/>
<path d="M47.2962 86.9175L55.1634 42.3988L70.5143 41.4401L76.5919 86.1523L47.2962 86.9175ZM76.2723 34.7234L49.8197 36.0656L37.5059 94.5348H85.6734L76.2723 34.7234Z" fill="white"/>
<path d="M55.3544 41.4401L78.6709 87.8318L73.2655 90.4386L51.9009 43.9984L55.3544 41.4401Z" fill="white"/>
<path d="M69.6919 40.4539L44.0318 86.6007L49.2174 90.2507L72.9725 41.6631L69.6919 40.4539Z" fill="white"/>
<path d="M155.001 36.9029L153.931 43.7417L112.685 43.9799L122.01 94.5355H114.148L110.436 74.4783L96.1077 76.0645L99.5939 94.5355H92.3949L80.6639 29.3321L51.2637 29.7969L52.5414 23.2719L84.9746 22.441L94.7824 69.127L109.233 67.1979L103.313 37.5304L155.001 36.9029Z" fill="white"/>
<path d="M258.745 85.5728H250.263L248.192 51.1524L264.162 52.7108L258.745 85.5728ZM292.05 87.4669H278.164L270.924 46.5216L240.745 43.1981L244.975 93.6782H263.574L268.094 64.6033L272.951 93.6782H293.392L292.05 87.4669Z" fill="white"/>
<path d="M343 93.7516L311.943 93.6714L312.501 87.1987L335.459 87.3603L333.98 76.5972L313.67 73.5852L313.164 73.469L315.273 47.1947L315.923 47.2644L338.485 50.3369L339.16 58.1344L321.118 55.0619L320.537 67.3972L339.93 70.4732L343 93.7516Z" fill="white"/>
</svg>
