<svg width="96" height="75" viewBox="0 0 96 75" fill="none" xmlns="http://www.w3.org/2000/svg">
<g clip-path="url(#clip0_276_1619)">
<path fill-rule="evenodd" clip-rule="evenodd" d="M-54.3864 22.6213C-53.6534 22.0098 -52.9251 21.3908 -52.2414 20.7214C-51.0377 19.5437 -48.6481 17.6423 -47.1114 16.987C-44.8194 16.0097 -43.5887 15.6641 -41.0863 15.9352C-40.4925 15.9999 -39.509 16.1117 -39.0111 16.4901C-38.4773 16.8955 -37.7886 18.0547 -37.4137 18.6174C-36.0179 20.7114 -34.826 22.8322 -33.1374 24.7263C-19.9952 39.4681 12.982 38.1437 32.0929 39.0552C32.4209 41.5108 32.9745 44.2684 34.9308 45.7434C35.7671 46.3731 36.703 46.7306 37.7385 46.8503C38.7212 46.9639 39.655 46.8485 40.6293 46.7463C41.181 46.6887 41.7999 46.6258 42.3514 46.7165C43.4046 46.8891 43.8441 47.2292 44.611 47.92C45.585 48.7981 46.3943 49.4021 47.6757 49.799C49.4194 50.3397 50.6003 50.5611 52.3648 49.8299C53.6703 49.2885 55.1549 48.4979 55.814 47.1757C56.0623 46.6782 56.1447 46.2896 56.1518 45.8835C56.6963 45.7168 57.1574 45.4743 57.6164 45.0815C58.5651 44.2697 59.5386 42.5988 59.8702 41.3921C60.1834 40.252 59.8272 38.6732 59.1974 37.392C61.2499 37.0508 63.3482 36.9489 65.4082 36.6643C67.6931 36.349 70.0246 36.1299 72.3304 36.0425C74.5118 35.9602 76.644 36.2743 78.806 36.5098C81.7617 36.8322 85.6591 35.166 87.2819 32.6374C89.4439 29.2691 87.544 25.8636 84.1391 24.4637C82.3231 23.7171 77.8507 24.2605 75.873 24.4954C73.5251 24.7743 71.118 25.1179 68.795 25.5627C66.4839 26.005 64.1005 26.0754 61.7634 26.3354C60.9733 26.4234 60.1897 26.5873 59.4091 26.7736C59.6545 26.3247 59.873 25.8634 60.0804 25.4201C61.5136 22.3493 59.7999 18.9179 57.1771 17.1256C53.6874 14.741 47.4797 16.6689 43.9384 18.0994C40.9444 19.3087 36.2364 21.6811 34.116 24.1621C33.2321 25.1963 33.2945 26.928 33.3567 28.2156C33.3669 28.4287 33.3853 28.6636 33.4038 28.9058C29.5041 29.2085 25.4339 29.1551 21.5773 28.9784C15.7403 28.7111 9.85696 28.0745 4.10752 27.0192C-5.56783 25.2431 -23.4803 20.5902 -26.5375 9.54701C-27.42 6.35926 -27.9903 0.243384 -24.7717 -1.87729C-22.5038 -3.37213 -13.0406 -4.97793 -10.1379 -5.15507C-6.05619 -5.40391 -1.13597 -5.21011 2.61571 -3.42797C4.67093 -2.45178 6.61563 -0.925515 8.76302 -0.179006C11.1303 0.64359 13.579 0.342891 15.9525 0.865507C16.3841 0.960348 16.8615 1.21194 17.2495 1.42037C18.1491 1.90317 19.0239 2.43879 20.0298 2.67266C21.1872 2.94153 22.8277 2.54666 24.0414 2.46103C25.6907 2.3441 27.1756 2.55173 28.6903 3.25134C30.7098 4.18463 33.7336 4.72064 35.9348 5.09837C38.1514 5.47901 40.4016 5.79377 42.638 6.03426C49.1901 6.73788 52.9265 5.85083 58.9557 3.40715C74.0699 -2.7193 74.1703 -0.892349 86.7769 -12.9942C94.4714 -20.3806 96.1813 -28.4312 97.9521 -38.5326C100.536 -53.2748 96.2507 -74.2618 82.3008 -82.2676C80.2914 -83.4205 78.1145 -84.3968 75.9622 -85.2484C73.8447 -86.0859 71.6529 -86.8386 69.4521 -87.4229C63.6694 -88.9573 58.7442 -88.0326 53.2462 -86.0114C47.5683 -83.9234 42.0221 -81.519 37.3145 -77.6365C33.4908 -74.4829 29.5791 -71.1568 26.1936 -67.5332C24.5071 -65.7275 22.9524 -63.8953 21.6968 -61.7573C20.5413 -59.79 19.6259 -57.6217 18.6835 -55.5439C17.7877 -53.5691 16.9056 -51.4354 15.7708 -49.5894C14.6221 -47.7204 13.167 -46.1966 11.565 -44.7122C9.73077 -43.0127 8.02332 -41.2679 6.64452 -39.1678C5.36245 -37.2158 4.36701 -35.0151 3.36755 -32.9065C2.42171 -30.9113 1.37293 -28.9644 0.320728 -27.0245C-0.799093 -24.96 -1.82008 -23.7895 -3.95565 -22.757C-6.54257 -21.5058 -9.49926 -20.8368 -12.2214 -19.9071C-14.9751 -18.9666 -17.7195 -17.998 -20.4888 -17.1044C-23.4385 -16.1522 -26.1612 -14.5884 -29.0936 -13.682C-31.2354 -13.0204 -32.1011 -13.3326 -33.6979 -14.8773C-37.3312 -18.393 -40.4445 -21.7994 -45.2077 -23.8303C-49.4911 -25.6566 -54.7221 -25.9933 -59.33 -26.2587C-65.6521 -26.6227 -68.7999 -26.027 -74.0204 -24.3766L-69.8456 -14.3833C-64.129 -14.8191 -58.5966 -14.347 -53.1233 -12.385C-52.9432 -12.3204 -52.423 -12.1539 -52.2021 -12.0283C-52.1983 -11.9958 -52.1974 -11.9616 -52.1961 -11.9374C-52.1959 -11.9192 -52.1953 -11.8918 -52.1968 -11.867C-52.392 -11.7202 -52.9781 -11.5529 -53.1706 -11.4997C-54.8962 -11.0243 -57.5452 -11.4413 -59.2956 -11.7361C-61.2289 -12.0622 -63.2047 -12.5005 -65.1548 -12.6709L-69.2805 -13.0306L-54.3864 22.6213Z" fill="black"/>
<path fill-rule="evenodd" clip-rule="evenodd" d="M-48.9459 10.253C-46.7141 10.2538 -49.238 3.99181 -49.7002 2.8856C-50.2948 1.46225 -50.7747 0.362979 -51.7217 -0.832162C-52.2491 -1.49709 -53.5746 -3.02417 -54.3721 -3.18254C-52.5539 -0.702341 -52.0933 -1.50835 -50.2156 2.98631C-49.4224 4.88496 -48.8018 6.63686 -48.5569 8.67214C-48.35 10.3899 -48.7533 9.54811 -48.9459 10.253ZM-51.0403 -8.35274C-50.3016 -7.58783 -46.9879 -10.3579 -47.6703 -12.2766C-47.8138 -12.6801 -48.1637 -13.5743 -48.4852 -13.8712C-48.8797 -14.2355 -48.5866 -14.0655 -48.8894 -14.0547C-48.1477 -12.4596 -47.8285 -12.3429 -48.5008 -10.6714C-49.2058 -8.91757 -50.3193 -9.20525 -51.0403 -8.35274ZM-47.841 2.84203C-47.3149 3.02388 -46.1066 2.81105 -45.4912 2.68193C-43.9572 2.35872 -38.9055 -0.598907 -39.4518 -1.81816C-39.736 -1.60707 -39.8393 -1.32874 -40.0939 -1.06331C-41.2007 0.092683 -43.9103 1.70928 -45.3989 2.25211C-46.0853 2.50231 -47.3656 2.56291 -47.841 2.84203ZM11.0529 -5.63338C12.027 -5.80566 11.4668 -8.13806 11.276 -8.75985C11.0757 -9.41376 10.1721 -11.8902 9.09556 -11.4316C9.71011 -10.8376 9.58554 -11.3221 10.0196 -10.2629C10.4243 -9.27548 11.0899 -8.02408 11.0345 -6.93881C11.0071 -6.39727 10.6914 -5.92105 11.0529 -5.63338ZM18.6273 -39.1873C19.1668 -39.3554 19.8341 -40.9799 21.2888 -41.1301C21.5607 -41.1582 23.8247 -40.4545 24.1483 -40.2646C25.7651 -39.3168 24.5471 -37.1124 23.7827 -35.9928C23.4729 -35.5388 23.7924 -35.0958 24.4473 -35.8836C24.7556 -36.255 25.6825 -38.0704 25.6945 -38.5344C25.7045 -38.9007 25.1943 -40.1162 24.9737 -40.4544C24.6762 -40.9106 21.8779 -42.1909 20.5736 -41.6242C19.865 -41.3163 18.0892 -40.0711 18.6273 -39.1873ZM47.6989 0.338674C47.3865 0.167338 46.6861 0.163542 46.1718 -0.0336199C45.6553 -0.231342 45.1205 -0.37152 44.6166 -0.572046C42.2266 -1.521 40.8814 -2.07653 39.0673 -3.9493C38.6398 -4.39021 37.6378 -5.59794 37.3228 -6.14809C37.0771 -6.57701 37.1243 -6.82003 36.7428 -6.97287C36.777 -5.27833 39.964 -2.24015 41.4653 -1.54433C42.4009 -1.11069 47.0059 1.22743 47.6989 0.338674ZM30.4186 -37.2494C30.9526 -37.3786 30.8032 -37.9485 30.8766 -38.5685C30.9388 -39.094 31.065 -39.4733 31.17 -39.981C31.434 -41.2636 32.3152 -44.1374 32.812 -45.3592C33.0152 -45.8595 33.2483 -46.0844 33.4635 -46.6243C34.2976 -48.7162 38.4492 -57.3471 38.4778 -57.9835C37.6805 -57.6405 33.964 -49.3579 33.4162 -48.0165C32.6773 -46.2085 31.9605 -44.6848 31.3533 -42.8103C31.0531 -41.8831 29.9423 -37.9307 30.4186 -37.2494ZM38.0742 -18.0942C37.0661 -19.4485 38.9628 -21.4241 39.7782 -22.4583C40.8101 -23.7668 41.951 -25.0605 42.9 -26.4198C45.1333 -29.6184 48.8681 -35.4559 49.9351 -39.262C50.0769 -39.7678 50.6678 -41.2097 50.6285 -41.5302C50.5691 -42.0142 50.9178 -43.3391 51.0528 -43.8885C51.7734 -46.8237 51.8815 -51.0364 51.6643 -54.0639C51.3063 -59.0552 50.6538 -61.1287 48.7108 -65.7314C48.1443 -67.0731 48.0603 -69.1935 45.2116 -65.6854C41.4621 -61.068 40.4534 -58.5361 37.6582 -53.1302C36.317 -50.536 34.7352 -47.0697 33.7294 -44.335C32.8045 -41.8204 31.5143 -37.5006 31.2057 -34.8784C30.7303 -30.8491 31.3531 -27.6961 32.5471 -23.8407C33.3423 -21.2735 33.7658 -20.6678 35.6564 -18.8972C38.6621 -16.0821 38.4128 -16.8391 38.9209 -18.4687C39.9154 -21.662 44.0077 -24.1339 46.7775 -25.6121C54.0115 -29.4735 58.0325 -32.9684 61.7957 -40.3457C64.1467 -44.9545 64.7638 -49.6842 65.0626 -54.7453C65.1535 -56.2796 65.4842 -58.6675 64.2751 -59.7793C63.9157 -59.2592 64.3997 -57.2541 64.3693 -56.406C64.2802 -53.9174 64.0515 -49.102 63.4312 -46.9394C62.2926 -42.9676 60.7737 -39.2247 58.2556 -35.9072C52.145 -27.8559 48.3832 -28.1063 41.5229 -23.0331C39.1887 -21.3065 38.9756 -18.8837 38.0742 -18.0942ZM40.4211 -17.5738C41.7226 -16.7856 50.8925 -19.7915 52.5774 -20.5067C60.7605 -23.9792 68.0185 -26.4451 73.6592 -33.5911C74.5547 -34.726 78.6721 -41.3157 78.7106 -42.3919C78.4368 -42.2044 74.2046 -35.1197 73.1763 -33.8711C67.355 -26.8013 60.5812 -24.5109 52.4456 -21.1077C48.4248 -19.4255 46.9421 -19.2398 43.2103 -18.2395C42.5715 -18.0685 40.7939 -17.9192 40.4211 -17.5738ZM61.8855 -65.9789C62.0258 -65.4699 65.3156 -64.3149 66.1687 -64.4831C68.9451 -65.0318 74.0213 -68.4577 76.4028 -70.1699C78.2684 -71.5115 81.4024 -72.5589 81.6277 -73.0156C81.2748 -73.5574 77.1497 -71.3717 76.5396 -70.9187C75.0107 -69.784 73.4425 -68.8966 71.8902 -67.8331C70.3774 -66.7976 68.1269 -65.7102 66.3884 -65.1395C64.7896 -64.6143 62.3272 -66.2539 61.8855 -65.9789ZM-72.6053 -20.9896C-65.7125 -24.0634 -63.1119 -24.1514 -54.4304 -23.2204C-46.7639 -22.3979 -43.7094 -20.903 -38.113 -15.593C-31.1535 -8.98857 -31.1446 -10.1404 -25.2621 -12.6087C-23.4322 -13.3766 -21.4762 -13.9512 -19.5901 -14.5821C-15.8347 -15.8387 -12.1031 -17.1437 -8.36107 -18.4333C-4.5402 -19.7499 -1.37698 -20.0448 1.17727 -23.541C2.83606 -25.8114 4.36133 -28.9236 5.6198 -31.465C8.96945 -38.2254 8.14792 -37.4934 13.3246 -42.8583C14.4385 -44.0128 15.6436 -44.7627 16.7838 -45.7988C17.8677 -46.7832 18.1679 -47.951 18.7011 -49.2635C19.2965 -50.73 20.0672 -51.9269 20.704 -53.3391C21.9322 -56.0649 22.9468 -59.0601 24.6607 -61.4805C26.4399 -63.9943 28.7875 -66.4384 31.034 -68.5423C36.1683 -73.352 41.4816 -78.1376 48.0042 -80.941C55.0669 -83.977 61.2051 -86.8224 69.0133 -84.7248C74.0311 -83.3767 81.5468 -80.4618 85.1761 -76.7127C95.1457 -66.4127 97.8375 -51.0123 95.1029 -37.3425C93.945 -31.5555 92.6333 -25.2759 89.5511 -20.173C85.0862 -12.7801 73.7799 -4.10707 65.4017 -1.37765C61.1111 0.0205791 59.8396 0.630319 56.1309 -2.29962C53.139 -4.66344 52.261 -7.79777 49.6592 -10.1482C45.973 -13.4783 42.5599 -12.7831 41.4198 -13.4762C43.6612 -14.951 48.5645 -13.9607 51.1321 -13.7538C52.5071 -13.6431 54.3615 -13.408 55.7182 -13.1443C56.6193 -12.969 59.5681 -12.2045 60.2051 -12.4222C58.8972 -13.8978 50.5644 -14.3758 48.3018 -14.7155C42.7374 -15.5507 41.9163 -13.851 39.7161 -13.4224C39.0491 -13.293 38.5887 -13.4297 38.2606 -12.6672C38.0648 -12.2139 37.6383 -10.2182 37.6997 -9.73994C37.9989 -7.40622 39.7316 -5.25338 41.5139 -3.83516C44.721 -1.28408 48.6148 -0.167452 52.6461 0.107714C53.1811 0.144567 58.8238 0.5671 58.8397 0.619254L58.8127 0.657203C56.0901 2.28269 50.7875 3.57508 47.5815 3.62849C43.9118 3.6894 41.4426 3.22652 37.8808 2.68408C34.9511 2.23771 31.464 1.53809 28.6456 0.618899C26.8343 0.0284136 26.2993 -0.646221 24.1803 -0.875509C22.0861 -1.10227 20.5085 0.626846 19.2801 -1.12754C18.6903 -1.96996 18.151 -2.46987 17.655 -3.43201C16.7061 -5.27302 15.6155 -6.94762 14.8861 -8.86104C14.114 -10.8871 12.4321 -12.1086 12.1423 -17.2266C12.0642 -18.6089 11.9833 -20.8091 12.3878 -22.1291C12.8691 -23.6991 13.0886 -25.0738 13.6884 -26.6819C14.4342 -28.6811 14.4616 -29.0398 15.8422 -30.7948C16.592 -31.7493 23.4416 -36.947 22.4 -37.9949C21.8118 -38.0214 19.4557 -35.2898 18.8807 -34.72C16.4925 -32.3529 15.7253 -32.4978 13.8164 -29.3725C13.2473 -28.4406 13.3825 -28.176 12.9939 -27.2894C11.8952 -24.7842 12.1617 -24.1921 11.7842 -22.8689C10.9096 -19.8082 11.0538 -15.9524 11.9966 -12.9069C12.1667 -12.3559 12.9767 -10.3853 13.2757 -9.95591C14.0442 -8.85217 14.0555 -8.3298 14.6218 -7.2656C15.4955 -5.62441 16.6756 -3.98672 17.3805 -2.19691C15.1952 -1.69499 11.2363 -1.92184 9.18463 -2.86593C7.95434 -3.43189 6.92636 -4.09126 5.76572 -4.76634C4.65435 -5.4131 3.43323 -5.91818 2.25807 -6.44294C-1.50506 -8.12398 -10.1994 -8.1826 -14.2151 -7.3735C-17.2596 -6.76016 -20.4886 -6.16901 -23.4815 -5.39689C-25.1146 -4.97599 -26.5433 -4.76944 -27.4305 -3.1904C-28.2143 -1.79636 -28.7113 -1.35802 -29.17 0.290948C-29.8939 2.89056 -29.7997 5.96058 -29.3913 8.61228C-28.8894 11.8672 -27.4166 14.7466 -25.3371 17.2747C-17.2787 27.4997 13.0958 32.15 27.5978 31.7857C28.6147 31.7724 35.6694 31.483 36.0092 31.2235C36.1529 30.3014 35.5009 27.4086 35.8464 26.0712C36.0893 25.1294 39.187 23.283 40.0917 22.7548C44.0635 20.4355 51.9459 16.6243 56.2938 19.7887C57.5878 20.7301 58.5285 23.194 57.5934 24.6231C56.533 26.2429 56.45 27.9503 54.0318 26.5122C52.9925 25.8941 52.888 25.4057 52.1261 24.8575C51.4503 24.3716 50.1573 24.6954 49.5 25.3242C49.0633 26.5352 49.8608 29.0688 51.0237 29.7128C52.017 30.2632 54.1235 30.3578 55.2445 30.2472C59.0338 29.8736 60.2273 28.9155 64.8398 28.6534C68.033 28.4715 71.1611 27.5678 74.3763 27.2606C76.3136 27.0752 81.9406 26.2495 83.4435 26.954C84.9225 27.6472 86.0854 28.8722 85.4334 30.6183C84.7603 32.42 83.1895 32.8204 81.639 33.5121C79.9106 34.2825 78.8573 33.9821 77.0541 33.7152C75.6526 33.5083 74.1331 33.5008 72.717 33.4814C70.4897 33.4515 54.8273 34.8731 54.1621 36.1677C54.049 36.8167 55.8223 36.2656 56.9521 38.6623C57.6792 40.2037 57.5318 41.0686 56.5578 42.4423C54.1328 45.8613 47.6084 41.6943 46.3194 39.8408C45.711 38.9656 45.5496 37.1222 46.0091 36.1566C46.2019 35.7505 46.9595 34.9657 47.3038 34.6474C48.6743 33.3788 49.6197 34.6067 50.5918 35.5083C51.2146 36.0855 51.6972 36.2445 51.1354 37.03C50.1092 36.9691 49.4628 35.601 48.4767 36.1241C48.6621 36.6563 49.1776 36.7126 49.7318 37.0241C50.5752 37.4987 52.8862 39.1614 53.7607 38.7813C53.6495 37.9894 52.2118 38.1236 51.6206 37.477C51.7838 37.0131 52.2836 36.7346 51.9085 35.9794C51.7414 35.6441 51.0267 35.045 50.7448 34.7404C50.1079 34.053 48.916 33.1262 47.9069 33.4376C47.2779 33.6317 45.7392 35.1628 45.4582 35.7682C44.7876 37.2128 45.324 37.8424 45.0573 38.8993C44.163 39.3308 44.095 39.0538 43.6839 39.9641C43.4577 40.4647 43.2038 40.5832 42.9521 41.1927C42.3068 42.7532 43.5044 43.2409 43.6151 44.528C43.3906 44.5941 42.4034 44.3248 42.002 44.3141C40.2391 44.2676 38.5207 44.7755 36.8655 44.0378C34.1673 42.8357 35.0796 38.2114 34.4091 36.8316C27.3154 35.5129 21.0337 36.2416 14.1197 35.874C3.73154 35.3225 -17.3136 33.1254 -25.9554 27.3136C-28.9437 25.304 -31.1558 22.7438 -33.7715 19.5677C-36.2766 16.5267 -35.8369 14.0142 -41.0285 13.4373C-47.2318 12.7481 -51.2242 16.2443 -55.4616 20.0474L-66.7749 -7.03331C-65.2641 -6.99257 -63.7372 -6.86128 -63.1837 -6.73778C-62.1102 -6.49758 -60.8986 -6.35464 -59.8406 -6.03731C-59.2836 -5.86986 -56.8966 -4.87762 -56.7339 -4.86901C-56.6731 -5.88345 -62.1805 -7.03241 -63.1626 -7.18233C-64.5825 -7.39934 -65.3725 -7.49022 -66.828 -7.49179L-66.9659 -7.49051L-68.2528 -10.5711C-66.2976 -10.3919 -64.1792 -10.0212 -62.6806 -9.93879C-61.7717 -9.8887 -60.7723 -9.49006 -59.7712 -9.37476C-57.3729 -9.09815 -56.1189 -8.60285 -53.5771 -8.95631C-51.2776 -9.27572 -48.5887 -10.2652 -49.8967 -13.1922C-50.5453 -14.6434 -53.7728 -15.3334 -55.2163 -15.7801C-58.7278 -16.8672 -66.5579 -17.7345 -70.9416 -17.0073L-72.6053 -20.9896Z" fill="#99CCCC"/>
<path fill-rule="evenodd" clip-rule="evenodd" d="M57.8035 22.1081C52.2355 19.3557 41.9805 22.4473 39.2515 28.0869C38.8599 28.8956 36.0838 32.8214 36.8694 34.3517C36.3403 34.428 29.0281 32.3188 24.9843 32.7256C12.1097 34.0206 3.49673 32.2187 -8.80757 29.1706C-17.5197 27.0123 -36.3184 17.7717 -29.647 6.36147C-29.5926 7.13066 -29.5041 7.8871 -29.3928 8.61223C-28.8909 11.8671 -27.4181 14.7466 -25.3386 17.2747C-17.2801 27.4996 13.0943 32.1499 27.5963 31.7856C28.6132 31.7723 35.6679 31.4829 36.0077 31.2234C36.1514 30.3013 35.4994 27.4085 35.8449 26.0711C36.0878 25.1293 39.1855 23.2829 40.0902 22.7548C44.062 20.4355 51.9444 16.6243 56.2923 19.7886C56.9595 20.2741 57.5327 21.164 57.8035 22.1081Z" fill="#528181"/>
<path fill-rule="evenodd" clip-rule="evenodd" d="M95.8637 -42.4952C95.7155 -41.5579 95.5471 -40.7619 95.3587 -40.1625L95.1918 -39.6308C93.1201 -33.0343 86.6868 -19.4273 81.3301 -14.7984C76.9475 -11.0117 69.0727 -4.20794 62.8237 -7.06715C62.8134 -7.07175 58.0237 -8.75568 58.0233 -8.7555C58.6771 -7.1904 61.7442 -3.03057 60.8368 -0.215966C62.0714 -0.251548 63.4111 -0.729741 65.3995 -1.37764C73.7778 -4.10707 85.084 -12.7801 89.5489 -20.173C92.6311 -25.2759 93.9428 -31.5555 95.1007 -37.3425C95.4395 -39.0378 95.6949 -40.7594 95.8637 -42.4952ZM51.9219 3.07261C48.3847 3.00158 44.6959 2.23999 42.5215 1.34274C41.0797 0.748044 27.1037 -5.06971 26.8846 -5.25582C24.0648 -5.66211 23.5575 1.26155 20.1166 -3.80967C19.4022 -4.86188 18.3162 -5.54099 17.0847 -5.0265C17.3205 -4.46204 17.5164 -3.91647 17.6739 -3.39093C18.1643 -2.45512 18.6967 -1.95772 19.2779 -1.12754C20.5063 0.626849 22.0839 -1.10226 24.1782 -0.875503C26.2971 -0.646218 26.8321 0.0284187 28.6434 0.618903C31.4619 1.5381 34.9489 2.23771 37.8786 2.68409C41.4404 3.22653 43.9096 3.6894 47.5793 3.6285C48.8068 3.60774 50.3422 3.40552 51.9219 3.07261Z" fill="#528181"/>
<path fill-rule="evenodd" clip-rule="evenodd" d="M83.5566 -78.1471C76.6088 -75.0045 73.9241 -69.9723 64.3305 -70.4561C59.3731 -70.7059 57.0528 -72.8331 55.431 -62.8374L55.5015 -61.7761C54.3178 -64.9161 53.2186 -68.0365 51.8981 -71.1608C45.055 -77.0008 32.5534 -57.6718 30.5438 -51.3264C28.1632 -43.8084 28.1872 -47.3536 27.6041 -38.189C27.5733 -37.7004 27.4448 -38.4075 27.4322 -37.385L27.3159 -38.3472C26.7329 -43.1674 27.8234 -35.192 27.0176 -41.208C23.3449 -49.885 10.5208 -36.4528 7.53691 -30.5462C4.84843 -25.2234 2.90351 -19.0167 4.54686 -13.1614C4.62179 -12.8948 4.74719 -11.7848 4.64302 -11.6014C1.57549 -12.4096 0.0572124 -15.8777 -6.7892 -14.2526C-12.0373 -13.0067 -16.5563 -14.0567 -23.4979 -10.9182C-24.8508 -10.3065 -33.5711 -7.74988 -33.0495 -4.69884C-33.7854 -4.51987 -41.7258 -12.8591 -42.9278 -13.9457C-51.1455 -21.3736 -61.7999 -22.3702 -72.2605 -20.1659L-73.1054 -22.1882C-66.3259 -23.9015 -63.1114 -24.1516 -54.4298 -23.2206C-46.7633 -22.3981 -43.7088 -20.9032 -38.1125 -15.5932C-31.1529 -8.98883 -31.1441 -10.1406 -25.2616 -12.609C-23.4317 -13.3769 -21.4757 -13.9515 -19.5895 -14.5824C-15.8342 -15.839 -12.1026 -17.144 -8.36053 -18.4336C-4.53966 -19.7502 -1.37644 -20.0451 1.17781 -23.5413C2.83659 -25.8116 4.36187 -28.9239 5.62033 -31.4652C8.96998 -38.2257 8.14845 -37.4937 13.3252 -42.8586C14.439 -44.0131 15.6441 -44.763 16.7843 -45.7991C17.8683 -46.7835 18.1684 -47.9512 18.7016 -49.2638C19.297 -50.7303 20.0677 -51.9272 20.7045 -53.3393C21.9327 -56.0651 22.9474 -59.0604 24.6612 -61.4807C26.4404 -63.9946 28.7881 -66.4386 31.0345 -68.5425C36.1688 -73.3522 41.4822 -78.1378 48.0047 -80.9413C55.0675 -83.9773 61.2056 -86.8227 69.0138 -84.725C73.3713 -83.5546 79.6127 -81.2016 83.5566 -78.1471Z" fill="#528181"/>
<path fill-rule="evenodd" clip-rule="evenodd" d="M55.3925 -1.88602C55.9482 -1.36577 56.7696 -0.973337 57.2305 -0.464355C56.4844 -0.296911 51.8494 -0.6721 50.9322 -0.832844C45.949 -1.70533 40.0343 -3.99326 38.5295 -9.42029C38.3427 -10.0937 38.6003 -11.8938 39.0808 -12.3564C39.9143 -12.7001 41.7655 -12.6662 42.57 -12.2505L41.9459 -11.2215C41.2384 -11.3414 39.6738 -11.9826 39.088 -11.8688L41.7582 -10.9731C41.6564 -10.448 41.2146 -9.57575 40.7417 -9.54071C41.1077 -9.16552 41.0854 -9.5845 41.01 -8.95378C40.9692 -8.61066 40.8233 -8.51069 41.1792 -8.26711L41.4631 -9.0729C41.8873 -9.15277 42.5283 -8.87617 42.8427 -8.59994C42.8187 -8.19275 42.6983 -7.86923 42.4153 -7.60231C41.8414 -7.63676 40.8995 -8.2728 40.4561 -7.969L42.2352 -7.19655C42.3017 -6.75899 42.0322 -6.61776 42.4208 -6.29002C42.6738 -7.45636 42.1405 -7.12489 44.4315 -6.512L44.3617 -5.46367C44.7717 -5.69423 44.5029 -5.77657 44.8512 -6.25258C45.2518 -6.29793 46.2839 -5.9199 46.6334 -5.69637C46.6273 -5.2324 46.3166 -5.01417 46.5431 -4.50263C46.8256 -4.64439 46.8108 -5.12677 47.0694 -5.52383C47.543 -5.62683 48.448 -5.30784 48.8785 -5.07666C48.8458 -4.43461 48.4005 -3.48581 48.5522 -2.98845C48.9618 -3.29397 49.1929 -4.47388 49.3574 -5.01735L51.5044 -4.59722C51.7401 -4.96543 49.9055 -5.22853 49.6282 -5.3429C49.5279 -5.77034 49.6496 -5.98962 49.9062 -6.36558L50.7576 -6.37298C50.6448 -6.89052 50.4658 -6.41606 50.1058 -6.82391C50.1324 -7.20702 50.2958 -7.54553 50.5958 -7.80228C51.9135 -6.58861 52.3831 -4.75241 53.6382 -3.51407C54.2233 -2.93644 54.8156 -2.42653 55.3925 -1.88602Z" fill="#FFFF66"/>
<path fill-rule="evenodd" clip-rule="evenodd" d="M56.2969 -0.425293C54.6767 -0.448482 51.656 -0.707149 50.9349 -0.833688C45.9518 -1.70617 40.037 -3.9941 38.5322 -9.42114C38.3454 -10.0945 38.603 -11.8946 39.0835 -12.3572C39.1137 -12.3698 39.1453 -12.3815 39.1782 -12.3933L39.243 -11.8834C39.1871 -11.8828 39.1357 -11.8786 39.0907 -11.8696L39.2516 -11.8158C39.4172 -10.5388 39.6227 -9.19202 39.9836 -8.42243C42.0945 -3.91795 50.4106 -1.38137 56.2969 -0.425293Z" fill="#E0E047"/>
<path fill-rule="evenodd" clip-rule="evenodd" d="M45.1856 39.4629C45.3073 39.5656 46.0106 40.6502 46.3416 40.9851C47.1751 41.8285 49.5136 43.2175 50.5704 43.6558C52.2283 44.3435 52.59 44.2487 52.9369 44.3799C53.0819 44.4345 53.881 45.2863 53.8584 45.5259C53.7853 46.3153 52.5896 47.1335 51.9477 47.4065C50.4486 48.0457 49.921 48.0808 48.3764 47.4461C46.2431 46.5707 44.0639 44.5372 43.387 42.2639C43.1043 41.3149 44.2846 39.6545 45.1856 39.4629Z" fill="#99CCCC"/>
</g>
<defs>
<clipPath id="clip0_276_1619">
<rect width="46.0764" height="83.9249" fill="white" transform="matrix(-0.385477 -0.922717 -0.922717 0.385477 95.1992 42.5156)"/>
</clipPath>
</defs>
</svg>
