<svg width="1600" height="801" viewBox="0 0 1600 801" fill="none" xmlns="http://www.w3.org/2000/svg">
<rect x="-815.148" width="3016" height="56" transform="rotate(14.32 -815.148 0)" fill="#FF1C1C"/>
<rect x="-808.407" y="9.97742" width="2987" height="41" transform="rotate(14.32 -808.407 9.97742)" stroke="white" stroke-width="5"/>
<path d="M-262.133 158.725L-265.037 170.102L-276.902 154.955L-282.588 177.229L-277.242 178.593L-274.469 167.731L-262.473 182.363L-256.787 160.09L-262.133 158.725ZM-244.006 163.462C-250.345 161.844 -256.797 165.672 -258.416 172.011C-260.034 178.35 -256.206 184.803 -249.866 186.421C-243.527 188.039 -237.075 184.211 -235.457 177.872C-233.838 171.532 -237.666 165.08 -244.006 163.462ZM-243.414 180.877C-244.997 181.787 -246.86 182.078 -248.642 181.624C-250.424 181.169 -251.919 180.02 -252.872 178.463C-253.816 176.872 -254.073 175.018 -253.618 173.236C-253.163 171.454 -252.049 169.95 -250.458 169.005C-248.866 168.061 -247.012 167.804 -245.23 168.259C-243.448 168.714 -241.944 169.828 -241 171.42C-240.056 173.011 -239.799 174.865 -240.254 176.647C-240.709 178.429 -241.823 179.933 -243.414 180.877ZM-215.208 170.704L-217.439 179.442L-224.155 177.727L-221.925 168.989L-227.27 167.624L-232.956 189.898L-227.61 191.263L-225.38 182.525L-218.663 184.239L-220.894 192.977L-215.548 194.342L-209.863 172.068L-215.208 170.704ZM-196.855 175.498C-203.194 173.88 -209.647 177.708 -211.265 184.047C-212.883 190.387 -209.055 196.839 -202.716 198.457C-196.376 200.075 -189.924 196.247 -188.306 189.908C-186.688 183.568 -190.516 177.116 -196.855 175.498ZM-196.264 192.913C-197.846 193.823 -199.709 194.114 -201.491 193.66C-203.273 193.205 -204.768 192.056 -205.721 190.499C-206.666 188.908 -206.922 187.054 -206.468 185.272C-206.013 183.49 -204.899 181.986 -203.307 181.042C-201.716 180.097 -199.862 179.841 -198.08 180.295C-196.298 180.75 -194.794 181.864 -193.849 183.456C-192.905 185.047 -192.648 186.901 -193.103 188.683C-193.558 190.465 -194.672 191.969 -196.264 192.913ZM-172.861 181.623C-179.201 180.005 -185.653 183.833 -187.271 190.172C-188.89 196.511 -185.062 202.964 -178.722 204.582C-172.383 206.2 -165.931 202.372 -164.312 196.033C-162.694 189.693 -166.522 183.241 -172.861 181.623ZM-172.27 199.038C-173.853 199.948 -175.716 200.239 -177.498 199.784C-179.279 199.33 -180.775 198.181 -181.728 196.624C-182.672 195.033 -182.929 193.178 -182.474 191.397C-182.019 189.615 -180.905 188.111 -179.314 187.166C-177.722 186.222 -175.868 185.965 -174.086 186.42C-172.304 186.875 -170.8 187.989 -169.856 189.581C-168.912 191.172 -168.655 193.026 -169.11 194.808C-169.565 196.59 -170.679 198.094 -172.27 199.038ZM-149.936 195.505L-159.807 184.846L-165.493 207.119L-160.147 208.484L-156.972 196.045L-151.631 201.861L-143.942 199.335L-147.126 211.808L-141.78 213.172L-136.094 190.899L-149.936 195.505ZM-122.626 218.062L-116.458 219.636L-122.732 194.31L-140.411 213.522L-134.243 215.096L-131.836 212.389L-123.441 214.532L-122.626 218.062ZM-128.61 208.76L-125.557 205.378L-124.532 209.801L-128.61 208.76ZM-94.8469 201.428L-97.751 212.805L-109.616 197.658L-115.302 219.932L-109.956 221.296L-107.183 210.433L-95.187 225.066L-89.5012 202.793L-94.8469 201.428ZM-84.2725 227.889C-82.3879 228.37 -80.7591 228.567 -79.3432 228.454C-77.9616 228.332 -76.7674 227.943 -75.7949 227.279C-73.9015 226.01 -73.4379 224.194 -73.2542 223.474C-72.8781 222.001 -73.0422 220.499 -73.7385 219.08C-74.8002 216.948 -77.0305 215.247 -80.3267 214.004C-83.289 212.883 -84.5781 211.641 -84.2107 210.202C-83.8258 208.694 -81.3987 208.766 -79.4112 209.274C-77.4923 209.764 -76.2703 210.696 -75.8299 211.83C-75.4653 212.69 -75.762 213.709 -75.762 213.709L-75.7532 213.675L-71.0586 214.873C-70.9712 214.531 -70.5061 212.423 -71.2076 210.309C-71.8755 208.35 -73.621 205.751 -78.2128 204.579C-81.7081 203.687 -84.48 203.965 -86.5111 205.344C-87.4407 205.983 -88.6217 207.178 -89.1553 209.268C-89.5402 210.776 -89.3673 212.244 -88.628 213.637C-88.1096 214.609 -87.3163 215.505 -86.2737 216.282C-85.1713 217.111 -83.7255 217.881 -82.0303 218.533C-79.2649 219.568 -77.736 220.87 -78.0859 222.241C-78.4183 223.543 -79.9901 223.981 -83.0742 223.194C-84.9246 222.722 -86.0613 221.884 -86.4842 220.681C-86.8225 219.719 -86.4989 218.451 -86.4989 218.451L-86.5076 218.485L-91.1847 217.218C-91.2634 217.527 -92.4196 220.626 -90.4276 223.69C-89.7889 224.619 -89.0642 225.498 -88.0813 226.223C-87.03 226.966 -85.746 227.513 -84.2725 227.889ZM-51.9505 236.103L-45.7824 237.678L-52.0559 212.351L-69.7351 231.563L-63.567 233.138L-61.1605 230.431L-52.7651 232.574L-51.9505 236.103ZM-57.9345 226.801L-54.8813 223.419L-53.8567 227.842L-57.9345 226.801ZM-38.352 234.464L-33.8909 216.988L-39.2365 215.624L-44.9223 237.897L-39.6109 239.253L-39.5766 239.262L-28.851 242L-27.6264 237.202L-38.352 234.464ZM-20.8504 238.932L-16.3892 221.456L-21.7349 220.091L-27.4206 242.365L-22.1093 243.721L-22.075 243.729L-11.3494 246.467L-10.1248 241.67L-20.8504 238.932ZM6.70596 227.461C0.366553 225.843 -6.0856 229.67 -7.70385 236.01C-9.3221 242.349 -5.49414 248.801 0.845266 250.42C7.18467 252.038 13.6368 248.21 15.2551 241.871C16.8733 235.531 13.0454 229.079 6.70596 227.461ZM7.29734 244.876C5.71455 245.786 3.85177 246.077 2.06989 245.622C0.288001 245.167 -1.20739 244.019 -2.16037 242.462C-3.1046 240.87 -3.36132 239.016 -2.90646 237.235C-2.4516 235.453 -1.33765 233.948 0.253886 233.004C1.84542 232.06 3.69945 231.803 5.48134 232.258C7.26322 232.713 8.76736 233.827 9.71159 235.419C10.6558 237.01 10.9125 238.864 10.4577 240.646C10.0028 242.428 8.88887 243.932 7.29734 244.876ZM41.4752 236.227L32.807 245.877L29.8244 233.253L23.6564 231.678L26.3392 242.474L25.0626 243.9L22.0801 231.276L15.912 229.701L22.2197 255.036L27.9288 248.829L29.9641 257.013L47.6433 237.801L41.4752 236.227ZM51.6011 253.229L60.2706 255.442L61.4952 250.645L52.8257 248.432L53.8316 244.491L64.0432 247.098L65.2678 242.3L49.7106 238.329L44.0248 260.603L59.5821 264.574L60.8067 259.776L50.5951 257.17L51.6011 253.229ZM75.7416 245.12L67.3461 242.977L67.2776 242.959L61.5918 265.233L61.866 265.303L70.0558 267.393C76.1896 268.959 82.4697 265.233 84.0355 259.1C85.61 252.931 81.8754 246.686 75.7416 245.12ZM76.0631 261.59C74.6437 262.433 72.9785 262.665 71.3679 262.253L68.2496 261.457L71.3199 249.43L74.4039 250.217C76.0145 250.628 77.3991 251.639 78.2412 253.058C79.0746 254.512 79.3065 256.177 78.8954 257.787C78.4843 259.398 77.4826 260.748 76.0631 261.59ZM89.8647 244.82L85.3161 262.638L90.6618 264.003L95.2104 246.184L89.8647 244.82ZM83.278 270.623L88.6237 271.987L89.9882 266.642L84.6426 265.277L83.278 270.623Z" fill="white"/>
<path d="M360.888 317.763L357.984 329.14L346.119 313.993L340.434 336.266L345.779 337.631L348.552 326.768L360.548 341.401L366.234 319.128L360.888 317.763ZM379.016 322.5C372.676 320.882 366.224 324.71 364.606 331.049C362.988 337.388 366.816 343.84 373.155 345.459C379.494 347.077 385.947 343.249 387.565 336.91C389.183 330.57 385.355 324.118 379.016 322.5ZM379.607 339.915C378.024 340.825 376.162 341.116 374.38 340.661C372.598 340.206 371.102 339.058 370.149 337.501C369.205 335.909 368.948 334.055 369.403 332.274C369.858 330.492 370.972 328.988 372.564 328.043C374.155 327.099 376.009 326.842 377.791 327.297C379.573 327.752 381.077 328.866 382.021 330.458C382.966 332.049 383.222 333.903 382.767 335.685C382.313 337.467 381.199 338.971 379.607 339.915ZM407.813 329.741L405.583 338.479L398.866 336.765L401.097 328.027L395.751 326.662L390.065 348.936L395.411 350.301L397.642 341.562L404.358 343.277L402.127 352.015L407.473 353.38L413.159 331.106L407.813 329.741ZM426.166 334.536C419.827 332.918 413.375 336.746 411.757 343.085C410.138 349.424 413.966 355.877 420.306 357.495C426.645 359.113 433.097 355.285 434.716 348.946C436.334 342.606 432.506 336.154 426.166 334.536ZM426.758 351.951C425.175 352.861 423.312 353.152 421.53 352.697C419.748 352.243 418.253 351.094 417.3 349.537C416.356 347.946 416.099 346.092 416.554 344.31C417.009 342.528 418.123 341.024 419.714 340.079C421.306 339.135 423.16 338.878 424.942 339.333C426.724 339.788 428.228 340.902 429.172 342.494C430.116 344.085 430.373 345.939 429.918 347.721C429.463 349.503 428.349 351.007 426.758 351.951ZM450.16 340.661C443.821 339.042 437.368 342.87 435.75 349.21C434.132 355.549 437.96 362.001 444.299 363.62C450.639 365.238 457.091 361.41 458.709 355.071C460.327 348.731 456.499 342.279 450.16 340.661ZM450.751 358.076C449.169 358.986 447.306 359.277 445.524 358.822C443.742 358.367 442.247 357.219 441.294 355.662C440.349 354.07 440.093 352.216 440.548 350.434C441.002 348.653 442.116 347.148 443.708 346.204C445.299 345.26 447.154 345.003 448.935 345.458C450.717 345.913 452.221 347.027 453.166 348.618C454.11 350.21 454.367 352.064 453.912 353.846C453.457 355.628 452.343 357.132 450.751 358.076ZM473.086 354.543L463.214 343.884L457.529 366.157L462.874 367.522L466.05 355.083L471.39 360.899L479.08 358.373L475.896 370.846L481.242 372.21L486.927 349.937L473.086 354.543ZM500.395 377.1L506.563 378.674L500.29 353.348L482.611 372.56L488.779 374.134L491.185 371.427L499.581 373.57L500.395 377.1ZM494.411 367.798L497.464 364.416L498.489 368.839L494.411 367.798ZM528.175 360.466L525.271 371.843L513.406 356.696L507.72 378.969L513.065 380.334L515.838 369.471L527.835 384.104L533.52 361.83L528.175 360.466ZM538.749 386.927C540.634 387.408 542.262 387.605 543.678 387.491C545.06 387.37 546.254 386.981 547.227 386.317C549.12 385.048 549.584 383.232 549.767 382.512C550.143 381.039 549.979 379.537 549.283 378.118C548.221 375.986 545.991 374.285 542.695 373.042C539.732 371.921 538.443 370.679 538.811 369.24C539.196 367.732 541.623 367.804 543.61 368.312C545.529 368.801 546.751 369.734 547.192 370.868C547.556 371.728 547.26 372.747 547.26 372.747L547.268 372.713L551.963 373.911C552.05 373.569 552.515 371.461 551.814 369.347C551.146 367.388 549.4 364.789 544.809 363.617C541.313 362.725 538.541 363.003 536.51 364.382C535.581 365.021 534.4 366.216 533.866 368.306C533.481 369.814 533.654 371.282 534.393 372.675C534.912 373.647 535.705 374.543 536.748 375.32C537.85 376.149 539.296 376.919 540.991 377.571C543.757 378.605 545.286 379.908 544.936 381.279C544.603 382.581 543.031 383.019 539.947 382.232C538.097 381.76 536.96 380.922 536.537 379.719C536.199 378.757 536.523 377.489 536.523 377.489L536.514 377.523L531.837 376.256C531.758 376.565 530.602 379.664 532.594 382.727C533.233 383.657 533.957 384.536 534.94 385.261C535.992 386.004 537.275 386.551 538.749 386.927ZM571.071 395.141L577.239 396.715L570.966 371.389L553.286 390.601L559.454 392.176L561.861 389.468L570.256 391.612L571.071 395.141ZM565.087 385.839L568.14 382.457L569.165 386.88L565.087 385.839ZM584.669 393.502L589.131 376.026L583.785 374.661L578.099 396.935L583.411 398.291L583.445 398.3L594.17 401.038L595.395 396.24L584.669 393.502ZM602.171 397.97L606.632 380.494L601.287 379.129L595.601 401.403L600.912 402.758L600.946 402.767L611.672 405.505L612.897 400.708L602.171 397.97ZM629.727 386.499C623.388 384.88 616.936 388.708 615.318 395.048C613.699 401.387 617.527 407.839 623.867 409.458C630.206 411.076 636.658 407.248 638.277 400.908C639.895 394.569 636.067 388.117 629.727 386.499ZM630.319 403.914C628.736 404.824 626.873 405.115 625.091 404.66C623.309 404.205 621.814 403.057 620.861 401.5C619.917 399.908 619.66 398.054 620.115 396.272C620.57 394.49 621.684 392.986 623.275 392.042C624.867 391.098 626.721 390.841 628.503 391.296C630.285 391.751 631.789 392.865 632.733 394.456C633.677 396.048 633.934 397.902 633.479 399.684C633.024 401.466 631.91 402.97 630.319 403.914ZM664.497 395.265L655.828 404.914L652.846 392.291L646.678 390.716L649.361 401.511L648.084 402.937L645.102 390.314L638.933 388.739L645.241 414.074L650.95 407.867L652.986 416.051L670.665 396.839L664.497 395.265ZM674.623 412.267L683.292 414.48L684.517 409.683L675.847 407.47L676.853 403.529L687.065 406.136L688.289 401.338L672.732 397.367L667.046 419.64L682.604 423.612L683.828 418.814L673.617 416.208L674.623 412.267ZM698.763 404.158L690.368 402.015L690.299 401.997L684.613 424.271L684.887 424.341L693.077 426.431C699.211 427.997 705.491 424.271 707.057 418.137C708.631 411.969 704.897 405.724 698.763 404.158ZM699.085 420.628C697.665 421.47 696 421.702 694.389 421.291L691.271 420.495L694.341 408.468L697.425 409.255C699.036 409.666 700.421 410.676 701.263 412.096C702.096 413.55 702.328 415.215 701.917 416.825C701.506 418.436 700.504 419.786 699.085 420.628ZM712.886 403.857L708.338 421.676L713.683 423.041L718.232 405.222L712.886 403.857ZM706.299 429.661L711.645 431.025L713.01 425.679L707.664 424.315L706.299 429.661Z" fill="white"/>
<path d="M880.235 450.336L877.331 461.712L865.466 446.566L859.78 468.839L865.126 470.204L867.899 459.341L879.895 473.974L885.581 451.7L880.235 450.336ZM898.362 455.073C892.023 453.454 885.571 457.282 883.953 463.622C882.334 469.961 886.162 476.413 892.502 478.031C898.841 479.65 905.293 475.822 906.912 469.482C908.53 463.143 904.702 456.691 898.362 455.073ZM898.954 472.488C897.371 473.398 895.508 473.689 893.726 473.234C891.944 472.779 890.449 471.631 889.496 470.074C888.552 468.482 888.295 466.628 888.75 464.846C889.205 463.064 890.319 461.56 891.91 460.616C893.502 459.672 895.356 459.415 897.138 459.87C898.92 460.325 900.424 461.439 901.368 463.03C902.312 464.622 902.569 466.476 902.114 468.258C901.659 470.04 900.545 471.544 898.954 472.488ZM927.16 462.314L924.929 471.052L918.213 469.338L920.444 460.6L915.098 459.235L909.412 481.509L914.758 482.873L916.988 474.135L923.705 475.85L921.474 484.588L926.82 485.952L932.506 463.679L927.16 462.314ZM945.513 467.109C939.174 465.49 932.722 469.318 931.103 475.658C929.485 481.997 933.313 488.449 939.652 490.068C945.992 491.686 952.444 487.858 954.062 481.518C955.68 475.179 951.852 468.727 945.513 467.109ZM946.104 484.524C944.522 485.434 942.659 485.725 940.877 485.27C939.095 484.815 937.6 483.667 936.647 482.11C935.703 480.518 935.446 478.664 935.901 476.882C936.356 475.1 937.469 473.596 939.061 472.652C940.653 471.708 942.507 471.451 944.288 471.906C946.07 472.361 947.574 473.475 948.519 475.066C949.463 476.658 949.72 478.512 949.265 480.294C948.81 482.076 947.696 483.58 946.104 484.524ZM969.507 473.233C963.167 471.615 956.715 475.443 955.097 481.783C953.479 488.122 957.307 494.574 963.646 496.192C969.985 497.811 976.438 493.983 978.056 487.643C979.674 481.304 975.846 474.852 969.507 473.233ZM970.098 490.649C968.515 491.559 966.653 491.85 964.871 491.395C963.089 490.94 961.593 489.792 960.64 488.235C959.696 486.643 959.439 484.789 959.894 483.007C960.349 481.225 961.463 479.721 963.055 478.777C964.646 477.833 966.5 477.576 968.282 478.031C970.064 478.486 971.568 479.6 972.512 481.191C973.457 482.783 973.713 484.637 973.258 486.419C972.804 488.201 971.69 489.705 970.098 490.649ZM992.433 487.116L982.561 476.456L976.875 498.73L982.221 500.095L985.396 487.656L990.737 493.472L998.427 490.945L995.243 503.418L1000.59 504.783L1006.27 482.509L992.433 487.116ZM1019.74 509.672L1025.91 511.247L1019.64 485.921L1001.96 505.133L1008.13 506.707L1010.53 504L1018.93 506.143L1019.74 509.672ZM1013.76 500.37L1016.81 496.989L1017.84 501.411L1013.76 500.37ZM1047.52 493.039L1044.62 504.415L1032.75 489.269L1027.07 511.542L1032.41 512.907L1035.19 502.044L1047.18 516.677L1052.87 494.403L1047.52 493.039ZM1058.1 519.499C1059.98 519.981 1061.61 520.177 1063.02 520.064C1064.41 519.942 1065.6 519.554 1066.57 518.889C1068.47 517.621 1068.93 515.805 1069.11 515.085C1069.49 513.612 1069.33 512.11 1068.63 510.691C1067.57 508.558 1065.34 506.858 1062.04 505.615C1059.08 504.493 1057.79 503.252 1058.16 501.813C1058.54 500.305 1060.97 500.377 1062.96 500.884C1064.88 501.374 1066.1 502.307 1066.54 503.441C1066.9 504.301 1066.61 505.32 1066.61 505.32L1066.61 505.286L1071.31 506.484C1071.4 506.141 1071.86 504.034 1071.16 501.92C1070.49 499.961 1068.75 497.362 1064.16 496.19C1060.66 495.298 1057.89 495.575 1055.86 496.955C1054.93 497.594 1053.75 498.789 1053.21 500.879C1052.83 502.387 1053 503.854 1053.74 505.248C1054.26 506.219 1055.05 507.115 1056.09 507.893C1057.2 508.721 1058.64 509.492 1060.34 510.144C1063.1 511.178 1064.63 512.481 1064.28 513.852C1063.95 515.154 1062.38 515.592 1059.29 514.805C1057.44 514.332 1056.31 513.495 1055.88 512.292C1055.55 511.329 1055.87 510.062 1055.87 510.062L1055.86 510.096L1051.18 508.829C1051.1 509.137 1049.95 512.237 1051.94 515.3C1052.58 516.23 1053.3 517.108 1054.29 517.834C1055.34 518.577 1056.62 519.123 1058.1 519.499ZM1090.42 527.714L1096.59 529.288L1090.31 503.962L1072.63 523.174L1078.8 524.748L1081.21 522.041L1089.6 524.184L1090.42 527.714ZM1084.43 518.412L1087.49 515.03L1088.51 519.453L1084.43 518.412ZM1104.02 526.075L1108.48 508.599L1103.13 507.234L1097.45 529.508L1102.76 530.864L1102.79 530.872L1113.52 533.61L1114.74 528.813L1104.02 526.075ZM1121.52 530.543L1125.98 513.066L1120.63 511.702L1114.95 533.975L1120.26 535.331L1120.29 535.34L1131.02 538.078L1132.24 533.281L1121.52 530.543ZM1149.07 519.071C1142.73 517.453 1136.28 521.281 1134.66 527.62C1133.05 533.96 1136.87 540.412 1143.21 542.03C1149.55 543.649 1156 539.821 1157.62 533.481C1159.24 527.142 1155.41 520.69 1149.07 519.071ZM1149.67 536.487C1148.08 537.397 1146.22 537.688 1144.44 537.233C1142.66 536.778 1141.16 535.63 1140.21 534.073C1139.26 532.481 1139.01 530.627 1139.46 528.845C1139.92 527.063 1141.03 525.559 1142.62 524.615C1144.21 523.671 1146.07 523.414 1147.85 523.869C1149.63 524.324 1151.14 525.438 1152.08 527.029C1153.02 528.621 1153.28 530.475 1152.83 532.257C1152.37 534.038 1151.26 535.543 1149.67 536.487ZM1183.84 527.837L1175.18 537.487L1172.19 524.863L1166.02 523.289L1168.71 534.084L1167.43 535.51L1164.45 522.886L1158.28 521.312L1164.59 546.647L1170.3 540.439L1172.33 548.624L1190.01 529.412L1183.84 527.837ZM1193.97 544.84L1202.64 547.053L1203.86 542.255L1195.19 540.042L1196.2 536.102L1206.41 538.708L1207.64 533.911L1192.08 529.94L1186.39 552.213L1201.95 556.184L1203.17 551.387L1192.96 548.78L1193.97 544.84ZM1218.11 536.73L1209.71 534.587L1209.65 534.57L1203.96 556.843L1204.23 556.913L1212.42 559.004C1218.56 560.57 1224.84 556.844 1226.4 550.71C1227.98 544.542 1224.24 538.296 1218.11 536.73ZM1218.43 553.201C1217.01 554.043 1215.35 554.275 1213.74 553.864L1210.62 553.068L1213.69 541.04L1216.77 541.828C1218.38 542.239 1219.77 543.249 1220.61 544.669C1221.44 546.122 1221.67 547.788 1221.26 549.398C1220.85 551.009 1219.85 552.359 1218.43 553.201ZM1232.23 536.43L1227.68 554.249L1233.03 555.614L1237.58 537.795L1232.23 536.43ZM1225.65 562.233L1230.99 563.598L1232.36 558.252L1227.01 556.888L1225.65 562.233Z" fill="white"/>
<rect x="249.89" y="286.32" width="2" height="30" transform="rotate(29.32 249.89 286.32)" fill="white"/>
<rect x="256.378" y="287.976" width="2" height="30" transform="rotate(29.32 256.378 287.976)" fill="white"/>
<rect x="282.331" y="294.601" width="2" height="30" transform="rotate(29.32 282.331 294.601)" fill="white"/>
<rect x="262.866" y="289.632" width="2" height="30" transform="rotate(29.32 262.866 289.632)" fill="white"/>
<rect x="288.82" y="296.258" width="2" height="30" transform="rotate(29.32 288.82 296.258)" fill="white"/>
<rect x="269.354" y="291.289" width="2" height="30" transform="rotate(29.32 269.354 291.289)" fill="white"/>
<rect x="275.844" y="292.945" width="2" height="30" transform="rotate(29.32 275.844 292.945)" fill="white"/>
<rect x="295.309" y="297.914" width="2" height="30" transform="rotate(29.32 295.309 297.914)" fill="white"/>
<rect x="301.797" y="299.57" width="2" height="30" transform="rotate(29.32 301.797 299.57)" fill="white"/>
<rect x="327.75" y="306.195" width="2" height="30" transform="rotate(29.32 327.75 306.195)" fill="white"/>
<rect x="308.285" y="301.226" width="2" height="30" transform="rotate(29.32 308.285 301.226)" fill="white"/>
<rect x="334.239" y="307.851" width="2" height="30" transform="rotate(29.32 334.239 307.851)" fill="white"/>
<rect x="314.773" y="302.882" width="2" height="30" transform="rotate(29.32 314.773 302.882)" fill="white"/>
<rect x="321.262" y="304.539" width="2" height="30" transform="rotate(29.32 321.262 304.539)" fill="white"/>
<path d="M1503.26 609.374L1500.35 620.75L1488.49 605.604L1482.8 627.877L1488.15 629.242L1490.92 618.379L1502.92 633.012L1508.6 610.738L1503.26 609.374ZM1521.38 614.11C1515.04 612.492 1508.59 616.32 1506.97 622.66C1505.36 628.999 1509.18 635.451 1515.52 637.069C1521.86 638.688 1528.31 634.86 1529.93 628.52C1531.55 622.181 1527.72 615.729 1521.38 614.11ZM1521.98 631.526C1520.39 632.436 1518.53 632.727 1516.75 632.272C1514.97 631.817 1513.47 630.669 1512.52 629.112C1511.57 627.52 1511.32 625.666 1511.77 623.884C1512.23 622.102 1513.34 620.598 1514.93 619.654C1516.52 618.71 1518.38 618.453 1520.16 618.908C1521.94 619.363 1523.45 620.477 1524.39 622.068C1525.33 623.66 1525.59 625.514 1525.14 627.296C1524.68 629.078 1523.57 630.582 1521.98 631.526ZM1550.18 621.352L1547.95 630.09L1541.23 628.376L1543.47 619.638L1538.12 618.273L1532.43 640.547L1537.78 641.911L1540.01 633.173L1546.73 634.888L1544.5 643.626L1549.84 644.99L1555.53 622.717L1550.18 621.352ZM1568.53 626.147C1562.2 624.528 1555.74 628.356 1554.12 634.696C1552.51 641.035 1556.33 647.487 1562.67 649.105C1569.01 650.724 1575.47 646.896 1577.08 640.556C1578.7 634.217 1574.87 627.765 1568.53 626.147ZM1569.13 643.562C1567.54 644.472 1565.68 644.763 1563.9 644.308C1562.12 643.853 1560.62 642.705 1559.67 641.148C1558.72 639.556 1558.47 637.702 1558.92 635.92C1559.38 634.138 1560.49 632.634 1562.08 631.69C1563.67 630.746 1565.53 630.489 1567.31 630.944C1569.09 631.399 1570.6 632.513 1571.54 634.104C1572.48 635.696 1572.74 637.55 1572.29 639.332C1571.83 641.114 1570.72 642.618 1569.13 643.562ZM1592.53 632.271C1586.19 630.653 1579.74 634.481 1578.12 640.82C1576.5 647.16 1580.33 653.612 1586.67 655.23C1593.01 656.849 1599.46 653.021 1601.08 646.681C1602.7 640.342 1598.87 633.89 1592.53 632.271ZM1593.12 649.687C1591.54 650.597 1589.67 650.888 1587.89 650.433C1586.11 649.978 1584.61 648.83 1583.66 647.273C1582.72 645.681 1582.46 643.827 1582.92 642.045C1583.37 640.263 1584.48 638.759 1586.08 637.815C1587.67 636.871 1589.52 636.614 1591.3 637.069C1593.09 637.524 1594.59 638.638 1595.53 640.229C1596.48 641.821 1596.73 643.675 1596.28 645.457C1595.83 647.238 1594.71 648.743 1593.12 649.687ZM1615.45 646.154L1605.58 635.494L1599.9 657.768L1605.24 659.132L1608.42 646.693L1613.76 652.51L1621.45 649.983L1618.26 662.456L1623.61 663.821L1629.3 641.547L1615.45 646.154ZM1642.76 668.71L1648.93 670.285L1642.66 644.958L1624.98 664.17L1631.15 665.745L1633.55 663.038L1641.95 665.181L1642.76 668.71ZM1636.78 659.408L1639.83 656.027L1640.86 660.449L1636.78 659.408ZM1670.54 652.077L1667.64 663.453L1655.77 648.306L1650.09 670.58L1655.43 671.945L1658.21 661.082L1670.2 675.715L1675.89 653.441L1670.54 652.077ZM1681.12 678.537C1683 679.018 1684.63 679.215 1686.05 679.102C1687.43 678.98 1688.62 678.592 1689.59 677.927C1691.49 676.659 1691.95 674.843 1692.14 674.123C1692.51 672.649 1692.35 671.148 1691.65 669.729C1690.59 667.596 1688.36 665.895 1685.06 664.653C1682.1 663.531 1680.81 662.29 1681.18 660.851C1681.56 659.343 1683.99 659.415 1685.98 659.922C1687.9 660.412 1689.12 661.345 1689.56 662.479C1689.92 663.339 1689.63 664.358 1689.63 664.358L1689.64 664.324L1694.33 665.522C1694.42 665.179 1694.88 663.071 1694.18 660.958C1693.51 658.999 1691.77 656.4 1687.18 655.228C1683.68 654.335 1680.91 654.613 1678.88 655.993C1677.95 656.632 1676.77 657.827 1676.23 659.917C1675.85 661.425 1676.02 662.892 1676.76 664.285C1677.28 665.257 1678.07 666.153 1679.12 666.93C1680.22 667.759 1681.66 668.53 1683.36 669.182C1686.12 670.216 1687.65 671.519 1687.3 672.89C1686.97 674.192 1685.4 674.63 1682.32 673.843C1680.47 673.37 1679.33 672.533 1678.91 671.33C1678.57 670.367 1678.89 669.099 1678.89 669.099L1678.88 669.134L1674.2 667.867C1674.13 668.175 1672.97 671.275 1674.96 674.338C1675.6 675.268 1676.33 676.146 1677.31 676.872C1678.36 677.614 1679.64 678.161 1681.12 678.537ZM1713.44 686.752L1719.61 688.326L1713.33 663L1695.65 682.212L1701.82 683.786L1704.23 681.079L1712.62 683.222L1713.44 686.752ZM1707.46 677.45L1710.51 674.068L1711.53 678.49L1707.46 677.45ZM1727.04 685.113L1731.5 667.637L1726.15 666.272L1720.47 688.546L1725.78 689.901L1725.81 689.91L1736.54 692.648L1737.76 687.851L1727.04 685.113ZM1744.54 689.58L1749 672.104L1743.65 670.74L1737.97 693.013L1743.28 694.369L1743.31 694.378L1754.04 697.116L1755.26 692.318L1744.54 689.58ZM1772.1 678.109C1765.76 676.491 1759.3 680.319 1757.69 686.658C1756.07 692.998 1759.9 699.45 1766.23 701.068C1772.57 702.686 1779.03 698.858 1780.64 692.519C1782.26 686.18 1778.44 679.728 1772.1 678.109ZM1772.69 695.525C1771.1 696.435 1769.24 696.726 1767.46 696.271C1765.68 695.816 1764.18 694.668 1763.23 693.11C1762.29 691.519 1762.03 689.665 1762.48 687.883C1762.94 686.101 1764.05 684.597 1765.64 683.653C1767.24 682.709 1769.09 682.452 1770.87 682.907C1772.65 683.361 1774.16 684.475 1775.1 686.067C1776.05 687.659 1776.3 689.513 1775.85 691.294C1775.39 693.076 1774.28 694.58 1772.69 695.525ZM1806.86 686.875L1798.2 696.525L1795.21 683.901L1789.05 682.327L1791.73 693.122L1790.45 694.548L1787.47 681.924L1781.3 680.35L1787.61 705.685L1793.32 699.477L1795.35 707.662L1813.03 688.45L1806.86 686.875ZM1816.99 703.878L1825.66 706.091L1826.88 701.293L1818.22 699.08L1819.22 695.139L1829.43 697.746L1830.66 692.949L1815.1 688.977L1809.41 711.251L1824.97 715.222L1826.2 710.425L1815.98 707.818L1816.99 703.878ZM1841.13 695.768L1832.74 693.625L1832.67 693.608L1826.98 715.881L1827.26 715.951L1835.45 718.042C1841.58 719.608 1847.86 715.882 1849.43 709.748C1851 703.58 1847.27 697.334 1841.13 695.768ZM1841.45 712.239C1840.03 713.081 1838.37 713.313 1836.76 712.902L1833.64 712.106L1836.71 700.078L1839.79 700.865C1841.4 701.277 1842.79 702.287 1843.63 703.706C1844.46 705.16 1844.7 706.825 1844.29 708.436C1843.87 710.046 1842.87 711.397 1841.45 712.239ZM1855.25 695.468L1850.71 713.287L1856.05 714.652L1860.6 696.833L1855.25 695.468ZM1848.67 721.271L1854.01 722.636L1855.38 717.29L1850.03 715.926L1848.67 721.271Z" fill="white"/>
<rect x="1392.26" y="577.93" width="2" height="30" transform="rotate(29.32 1392.26 577.93)" fill="white"/>
<rect x="1398.75" y="579.587" width="2" height="30" transform="rotate(29.32 1398.75 579.587)" fill="white"/>
<rect x="1424.7" y="586.212" width="2" height="30" transform="rotate(29.32 1424.7 586.212)" fill="white"/>
<rect x="1405.23" y="581.243" width="2" height="30" transform="rotate(29.32 1405.23 581.243)" fill="white"/>
<rect x="1431.19" y="587.868" width="2" height="30" transform="rotate(29.32 1431.19 587.868)" fill="white"/>
<rect x="1411.72" y="582.899" width="2" height="30" transform="rotate(29.32 1411.72 582.899)" fill="white"/>
<rect x="1418.21" y="584.556" width="2" height="30" transform="rotate(29.32 1418.21 584.556)" fill="white"/>
<rect x="1437.68" y="589.524" width="2" height="30" transform="rotate(29.32 1437.68 589.524)" fill="white"/>
<rect x="1444.17" y="591.181" width="2" height="30" transform="rotate(29.32 1444.17 591.181)" fill="white"/>
<rect x="1470.12" y="597.806" width="2" height="30" transform="rotate(29.32 1470.12 597.806)" fill="white"/>
<rect x="1450.65" y="592.837" width="2" height="30" transform="rotate(29.32 1450.65 592.837)" fill="white"/>
<rect x="1476.61" y="599.462" width="2" height="30" transform="rotate(29.32 1476.61 599.462)" fill="white"/>
<rect x="1457.14" y="594.493" width="2" height="30" transform="rotate(29.32 1457.14 594.493)" fill="white"/>
<rect x="1463.63" y="596.149" width="2" height="30" transform="rotate(29.32 1463.63 596.149)" fill="white"/>
<path d="M151.393 269.693C150.978 268.126 150.258 266.655 149.273 265.367C148.288 264.078 147.058 262.997 145.654 262.185C144.251 261.374 142.7 260.847 141.092 260.637C139.484 260.426 137.85 260.535 136.285 260.958C134.719 261.38 133.252 262.108 131.969 263.1C130.685 264.091 129.61 265.326 128.806 266.734C128.001 268.142 127.482 269.695 127.28 271.304C127.077 272.913 127.195 274.546 127.625 276.11M151.393 269.693C152.225 272.839 151.778 276.186 150.149 279.003C148.52 281.82 145.843 283.878 142.701 284.726C139.56 285.574 136.21 285.143 133.385 283.529C130.56 281.914 128.489 279.247 127.625 276.11M151.393 269.693L127.623 276.108" stroke="white" stroke-width="3" stroke-linecap="round" stroke-linejoin="round"/>
<path d="M180.407 277.1C179.992 275.532 179.271 274.061 178.287 272.773C177.302 271.484 176.072 270.403 174.668 269.592C173.264 268.78 171.714 268.253 170.106 268.043C168.498 267.832 166.864 267.941 165.298 268.364C163.733 268.787 162.266 269.514 160.982 270.506C159.699 271.497 158.624 272.732 157.819 274.14C157.015 275.548 156.496 277.101 156.294 278.71C156.091 280.319 156.208 281.953 156.639 283.516M180.407 277.1C181.239 280.245 180.792 283.592 179.163 286.409C177.534 289.226 174.856 291.284 171.715 292.132C168.573 292.98 165.224 292.55 162.399 290.935C159.574 289.321 157.503 286.653 156.639 283.516M180.407 277.1L156.636 283.515" stroke="white" stroke-width="3" stroke-linecap="round" stroke-linejoin="round"/>
<path d="M210.356 284.745C209.941 283.177 209.221 281.707 208.236 280.418C207.251 279.13 206.021 278.048 204.617 277.237C203.213 276.425 201.663 275.899 200.055 275.688C198.447 275.477 196.813 275.586 195.248 276.009C193.682 276.432 192.215 277.16 190.932 278.151C189.648 279.142 188.573 280.377 187.769 281.785C186.964 283.193 186.445 284.746 186.243 286.355C186.04 287.964 186.158 289.598 186.588 291.161M210.356 284.745C211.188 287.89 210.741 291.238 209.112 294.054C207.483 296.871 204.805 298.929 201.664 299.777C198.523 300.625 195.173 300.195 192.348 298.58C189.523 296.966 187.452 294.298 186.588 291.161M210.356 284.745L186.585 291.16" stroke="white" stroke-width="3" stroke-linecap="round" stroke-linejoin="round"/>
<path d="M775.383 428.979C774.968 427.411 774.248 425.94 773.263 424.652C772.278 423.363 771.049 422.282 769.645 421.471C768.241 420.659 766.69 420.132 765.082 419.922C763.474 419.711 761.841 419.82 760.275 420.243C758.709 420.666 757.242 421.393 755.959 422.385C754.675 423.376 753.601 424.611 752.796 426.019C751.991 427.427 751.473 428.98 751.27 430.589C751.068 432.198 751.185 433.831 751.616 435.395M775.383 428.979C776.215 432.124 775.768 435.471 774.139 438.288C772.511 441.105 769.833 443.163 766.691 444.011C763.55 444.859 760.201 444.429 757.375 442.814C754.55 441.2 752.479 438.532 751.616 435.395M775.383 428.979L751.613 435.393" stroke="white" stroke-width="3" stroke-linecap="round" stroke-linejoin="round"/>
<path d="M804.397 436.385C803.982 434.817 803.262 433.347 802.277 432.058C801.292 430.77 800.062 429.688 798.658 428.877C797.254 428.065 795.704 427.539 794.096 427.328C792.488 427.117 790.854 427.226 789.289 427.649C787.723 428.072 786.256 428.8 784.973 429.791C783.689 430.782 782.614 432.017 781.81 433.425C781.005 434.833 780.486 436.386 780.284 437.995C780.081 439.604 780.199 441.238 780.629 442.801M804.397 436.385C805.229 439.53 804.782 442.878 803.153 445.695C801.524 448.511 798.846 450.569 795.705 451.417C792.564 452.265 789.214 451.835 786.389 450.22C783.564 448.606 781.493 445.938 780.629 442.801M804.397 436.385L780.627 442.8" stroke="white" stroke-width="3" stroke-linecap="round" stroke-linejoin="round"/>
<path d="M834.346 444.03C833.931 442.462 833.211 440.992 832.226 439.703C831.241 438.415 830.011 437.334 828.608 436.522C827.204 435.71 825.653 435.184 824.045 434.973C822.437 434.762 820.803 434.871 819.238 435.294C817.672 435.717 816.205 436.445 814.922 437.436C813.638 438.427 812.563 439.662 811.759 441.07C810.954 442.478 810.436 444.032 810.233 445.641C810.03 447.25 810.148 448.883 810.578 450.446M834.346 444.03C835.178 447.176 834.731 450.523 833.102 453.34C831.474 456.157 828.796 458.214 825.654 459.062C822.513 459.91 819.163 459.48 816.338 457.865C813.513 456.251 811.442 453.583 810.578 450.446M834.346 444.03L810.576 450.445" stroke="white" stroke-width="3" stroke-linecap="round" stroke-linejoin="round"/>
<path d="M1293.76 561.304C1293.35 559.736 1292.62 558.266 1291.64 556.977C1290.66 555.689 1289.43 554.608 1288.02 553.796C1286.62 552.984 1285.07 552.458 1283.46 552.247C1281.85 552.036 1280.22 552.146 1278.65 552.568C1277.09 552.991 1275.62 553.719 1274.34 554.71C1273.05 555.701 1271.98 556.937 1271.17 558.345C1270.37 559.753 1269.85 561.306 1269.65 562.915C1269.44 564.524 1269.56 566.157 1269.99 567.72M1293.76 561.304C1294.59 564.45 1294.15 567.797 1292.52 570.614C1290.89 573.431 1288.21 575.488 1285.07 576.336C1281.93 577.184 1278.58 576.754 1275.75 575.139C1272.93 573.525 1270.86 570.858 1269.99 567.72M1293.76 561.304L1269.99 567.719" stroke="white" stroke-width="3" stroke-linecap="round" stroke-linejoin="round"/>
<path d="M1322.77 568.71C1322.36 567.142 1321.64 565.672 1320.65 564.384C1319.67 563.095 1318.44 562.014 1317.04 561.202C1315.63 560.39 1314.08 559.864 1312.47 559.653C1310.86 559.443 1309.23 559.552 1307.67 559.974C1306.1 560.397 1304.63 561.125 1303.35 562.116C1302.07 563.108 1300.99 564.343 1300.19 565.751C1299.38 567.159 1298.86 568.712 1298.66 570.321C1298.46 571.93 1298.58 573.563 1299.01 575.127M1322.77 568.71C1323.61 571.856 1323.16 575.203 1321.53 578.02C1319.9 580.837 1317.22 582.894 1314.08 583.742C1310.94 584.59 1307.59 584.16 1304.77 582.546C1301.94 580.931 1299.87 578.264 1299.01 575.127M1322.77 568.71L1299 575.125" stroke="white" stroke-width="3" stroke-linecap="round" stroke-linejoin="round"/>
<path d="M1352.72 576.355C1352.31 574.788 1351.59 573.317 1350.6 572.029C1349.62 570.74 1348.39 569.659 1346.98 568.847C1345.58 568.035 1344.03 567.509 1342.42 567.298C1340.81 567.088 1339.18 567.197 1337.61 567.62C1336.05 568.042 1334.58 568.77 1333.3 569.761C1332.02 570.753 1330.94 571.988 1330.14 573.396C1329.33 574.804 1328.81 576.357 1328.61 577.966C1328.41 579.575 1328.52 581.208 1328.96 582.772M1352.72 576.355C1353.56 579.501 1353.11 582.848 1351.48 585.665C1349.85 588.482 1347.17 590.539 1344.03 591.387C1340.89 592.236 1337.54 591.805 1334.72 590.191C1331.89 588.576 1329.82 585.909 1328.96 582.772M1352.72 576.355L1328.95 582.77" stroke="white" stroke-width="3" stroke-linecap="round" stroke-linejoin="round"/>
</svg>
