<svg width="217" height="55" viewBox="0 0 217 55" fill="none" xmlns="http://www.w3.org/2000/svg">
<path d="M37.965 36.027C39.45 36.027 40.692 35.865 41.718 35.514C42.717 35.163 43.527 34.65 44.121 33.975C45.282 32.679 45.282 31.248 45.282 30.681C45.282 29.52 44.877 28.44 44.094 27.522C42.906 26.145 40.935 25.308 38.262 25.011C35.859 24.741 34.671 24.066 34.671 22.932C34.671 21.744 36.48 21.339 38.046 21.339C39.558 21.339 40.638 21.798 41.178 22.554C41.61 23.121 41.583 23.931 41.583 23.931V23.904H45.282C45.282 23.634 45.228 21.987 44.31 20.556C43.446 19.233 41.664 17.64 38.046 17.64C35.292 17.64 33.294 18.369 32.052 19.773C31.485 20.421 30.837 21.528 30.837 23.175C30.837 24.363 31.242 25.416 32.052 26.307C32.619 26.928 33.375 27.441 34.293 27.819C35.265 28.224 36.48 28.521 37.857 28.683C40.098 28.926 41.475 29.601 41.475 30.681C41.475 31.707 40.395 32.328 37.965 32.328C36.507 32.328 35.508 31.923 34.968 31.113C34.536 30.465 34.536 29.466 34.536 29.466V29.493L30.837 29.439C30.837 29.682 30.567 32.193 32.619 34.083C33.267 34.65 33.969 35.163 34.833 35.514C35.751 35.865 36.804 36.027 37.965 36.027ZM56.398 18.45V25.335H51.106V18.45H46.894V36H51.106V29.115H56.398V36H60.61V18.45H56.398ZM102.473 18.45L97.8835 27.225L93.2935 18.45H88.4335L92.4565 25.929L91.7815 27.225L87.1915 18.45H82.3315L91.7815 36L94.8325 30.33L97.8835 36L107.333 18.45H102.473ZM130.637 24.444C130.637 21.744 128.693 18.45 124.373 18.45C121.862 18.45 120.701 18.45 120.188 18.45H115.976V36H120.188V30.411C120.782 30.411 121.457 30.411 122.186 30.411L125.858 36H130.583L126.803 30.006C129.584 29.034 130.637 26.415 130.637 24.444ZM120.188 22.23H124.373C125.264 22.23 125.885 22.446 126.29 22.932C126.722 23.391 126.857 24.012 126.857 24.444C126.857 24.849 126.722 25.47 126.344 25.929C126.182 26.118 125.966 26.253 125.723 26.388C125.372 26.55 124.886 26.631 124.346 26.631H120.188V22.23ZM140.357 18.531C135.362 18.531 131.312 22.581 131.312 27.576C131.312 32.571 135.362 36.621 140.357 36.621C145.352 36.621 149.402 32.571 149.402 27.576C149.402 22.581 145.352 18.531 140.357 18.531ZM144.083 31.302C143.084 32.274 141.761 32.841 140.357 32.841C138.953 32.841 137.63 32.274 136.631 31.302C135.632 30.303 135.092 28.98 135.092 27.576C135.092 26.172 135.632 24.849 136.631 23.85C137.63 22.851 138.953 22.311 140.357 22.311C141.761 22.311 143.084 22.851 144.083 23.85C145.082 24.849 145.622 26.172 145.622 27.576C145.622 28.98 145.082 30.303 144.083 31.302ZM159.263 18.531C154.268 18.531 150.218 22.581 150.218 27.576C150.218 32.571 154.268 36.621 159.263 36.621C164.258 36.621 168.308 32.571 168.308 27.576C168.308 22.581 164.258 18.531 159.263 18.531ZM162.989 31.302C161.99 32.274 160.667 32.841 159.263 32.841C157.859 32.841 156.536 32.274 155.537 31.302C154.538 30.303 153.998 28.98 153.998 27.576C153.998 26.172 154.538 24.849 155.537 23.85C156.536 22.851 157.859 22.311 159.263 22.311C160.667 22.311 161.99 22.851 162.989 23.85C163.988 24.849 164.528 26.172 164.528 27.576C164.528 28.98 163.988 30.303 162.989 31.302ZM178.843 24.471L169.528 18.45V36H173.74V26.199L178.789 29.493L184 26.172V36H188.212V18.45L178.843 24.471Z" fill="#1E1E1E"/>
<path d="M68.0501 34.2604L70.501 20.3912L75.2833 20.0925L77.1767 34.022L68.0501 34.2604ZM77.0772 18L68.8362 18.4181L65 36.6335H80.006L77.0772 18Z" fill="#1E1E1E"/>
<path d="M70.5609 20.0926L77.8248 34.5453L76.1408 35.3574L69.485 20.8896L70.5609 20.0926Z" fill="#1E1E1E"/>
<path d="M75.027 19.7853L67.0329 34.1617L68.6485 35.2988L76.0491 20.162L75.027 19.7853Z" fill="#1E1E1E"/>
</svg>
