<svg width="841" height="1064" viewBox="0 0 841 1064" fill="none" xmlns="http://www.w3.org/2000/svg">
<g opacity="0.41">
<path d="M761.973 401.575L762.47 401.519L762.425 401.123L762.03 401.078L761.973 401.575ZM761.973 401.575C762.47 401.519 762.47 401.519 762.471 401.521L762.471 401.526L762.474 401.548L762.483 401.633C762.491 401.709 762.503 401.821 762.518 401.969C762.549 402.266 762.593 402.707 762.647 403.285C762.755 404.441 762.902 406.147 763.06 408.346C763.374 412.746 763.728 419.123 763.888 427.038C764.209 442.869 763.755 464.858 760.656 489.493C754.459 538.748 737.676 598.657 695.283 641.037C652.89 683.429 592.979 700.213 543.724 706.413C519.089 709.514 497.102 709.969 481.272 709.649C473.357 709.49 466.98 709.136 462.581 708.822C460.382 708.665 458.676 708.518 457.52 708.41C456.942 708.356 456.501 708.312 456.205 708.281C456.056 708.266 455.944 708.254 455.869 708.246L455.783 708.237L455.762 708.234L455.756 708.234C455.755 708.233 455.754 708.233 455.81 707.736M761.973 401.575C762.03 401.078 762.029 401.078 762.028 401.078L762.022 401.077L762 401.075L761.915 401.065C761.84 401.057 761.727 401.045 761.579 401.03C761.282 400.999 760.841 400.955 760.263 400.901C759.107 400.793 757.402 400.646 755.202 400.489C750.803 400.176 744.427 399.822 736.512 399.662C720.682 399.342 698.694 399.797 674.059 402.898C624.805 409.098 564.893 425.883 522.5 468.274C480.116 510.664 463.334 570.573 457.134 619.826C454.034 644.459 453.578 666.447 453.898 682.276C454.058 690.19 454.411 696.567 454.725 700.966C454.882 703.165 455.029 704.87 455.137 706.026C455.19 706.604 455.235 707.045 455.265 707.342C455.281 707.49 455.293 707.603 455.301 707.678L455.31 707.763L455.312 707.785L455.313 707.791C455.313 707.792 455.313 707.793 455.81 707.736M455.81 707.736L455.754 708.233L455.358 708.188L455.313 707.793L455.81 707.736ZM79.0156 401.575L78.9594 401.078L78.5636 401.123L78.5188 401.519L79.0156 401.575ZM79.0156 401.575C78.9594 401.078 78.9601 401.078 78.9614 401.078L78.967 401.077L78.9887 401.075L79.0741 401.065C79.1181 401.061 79.1747 401.055 79.2437 401.047C79.2929 401.042 79.3484 401.036 79.4101 401.03C79.7067 400.999 80.1474 400.955 80.7254 400.901C81.8814 400.793 83.5865 400.646 85.7859 400.489C90.1844 400.176 96.5603 399.822 104.475 399.662C120.303 399.342 142.288 399.797 166.921 402.898C216.171 409.098 276.078 425.883 318.471 468.274C360.864 510.664 377.651 570.573 383.852 619.826C386.954 644.459 387.41 666.447 387.091 682.276C386.931 690.19 386.578 696.567 386.264 700.966C386.107 703.165 385.96 704.87 385.853 706.026C385.799 706.604 385.755 707.045 385.724 707.342L385.704 707.533L385.688 707.678L385.679 707.763L385.677 707.785L385.676 707.791C385.676 707.792 385.676 707.793 385.179 707.736M79.0156 401.575C78.5188 401.519 78.5187 401.519 78.5186 401.521L78.5179 401.526L78.5155 401.548L78.5062 401.633C78.498 401.709 78.486 401.821 78.4706 401.969C78.4399 402.266 78.3957 402.707 78.3418 403.285C78.2338 404.441 78.0867 406.147 77.9296 408.346C77.6154 412.746 77.2612 419.123 77.1007 427.038C76.7799 442.869 77.2338 464.858 80.3333 489.493C86.5303 538.748 103.313 598.657 145.706 641.037C188.09 683.429 248.002 700.213 297.258 706.413C321.894 709.514 343.884 709.969 359.715 709.649C367.631 709.49 374.008 709.136 378.407 708.822C380.607 708.665 382.312 708.518 383.469 708.41C384.047 708.356 384.488 708.312 384.784 708.281C384.933 708.266 385.045 708.254 385.12 708.246L385.206 708.237L385.228 708.234L385.233 708.234C385.234 708.233 385.235 708.233 385.179 707.736M385.179 707.736L385.676 707.793L385.631 708.188L385.235 708.233L385.179 707.736ZM0.5 404.512C0.5 248.866 47.5279 147.9 123.473 85.8301C199.439 23.7441 304.425 0.5 420.486 0.5C536.547 0.5 641.537 23.7441 717.506 85.8301C793.455 147.9 840.487 248.866 840.487 404.512C840.487 506.397 795.439 625.202 734.794 735.27C674.155 845.327 597.958 946.584 535.737 1013.36C473.455 1080.21 367.516 1080.21 305.234 1013.36C243.022 946.584 166.83 845.327 106.193 735.27C45.5489 625.202 0.5 506.397 0.5 404.512Z" fill="#1E1E1E" stroke="#37F4A6"/>
</g>
</svg>
