<svg width="1600" height="579" viewBox="0 0 1600 579" fill="none" xmlns="http://www.w3.org/2000/svg">
<rect x="-468" y="523.748" width="3016" height="56" transform="rotate(-10.0005 -468 523.748)" fill="#37F4A6"/>
<rect x="-457.748" y="530.063" width="2987" height="41" transform="rotate(-10.0005 -457.748 530.063)" fill="#37F4A6" stroke="#1E1E1E" stroke-width="5"/>
<path d="M545.833 384.688L551.505 383.688L536.895 365.143L529.477 387.572L535.149 386.572L536.125 383.443L543.846 382.082L545.833 384.688ZM537.432 379.248L538.69 375.322L541.182 378.587L537.432 379.248ZM563.605 377.005L560.771 360.933L555.855 361.8L559.467 382.284L564.351 381.423L564.383 381.417L574.247 379.678L573.469 375.266L563.605 377.005ZM572.001 358.953L575.613 379.437L580.529 378.57L576.917 358.086L572.001 358.953ZM594.755 360.01L593.889 355.094L578.321 357.839L579.188 362.755L584.513 361.816L587.258 377.384L592.175 376.517L589.43 360.949L594.755 360.01ZM611.928 356.982L611.061 352.066L595.493 354.811L596.36 359.727L601.686 358.788L604.431 374.356L609.347 373.489L606.602 357.921L611.928 356.982ZM620.416 366.988L617.582 350.916L612.666 351.783L616.278 372.267L621.162 371.406L621.194 371.4L631.058 369.661L630.28 365.249L620.416 366.988ZM635.872 360.526L643.845 359.12L643.067 354.708L635.094 356.114L634.455 352.49L643.847 350.834L643.069 346.422L628.761 348.945L632.373 369.429L646.681 366.906L645.903 362.494L636.511 364.15L635.872 360.526ZM670.166 350.937C670.166 350.937 671.459 348.5 670.102 345.782C668.23 341.985 663.566 342.808 663.566 342.808L654.081 344.48L657.693 364.964L668.817 363.003C668.817 363.003 674.627 361.491 673.671 356.071C672.888 351.627 670.166 350.937 670.166 350.937ZM659.669 347.427L664.05 346.654C665.31 346.432 666.528 347.257 666.756 348.549C666.978 349.81 666.116 351.002 664.855 351.224L660.475 351.996L659.669 347.427ZM669.799 356.591C670.021 357.852 669.19 359.038 667.93 359.26L661.942 360.316L661.136 355.746L667.124 354.691C668.384 354.468 669.576 355.33 669.799 356.591ZM689.214 359.406L694.887 358.406L680.277 339.861L672.859 362.29L678.531 361.29L679.507 358.161L687.228 356.8L689.214 359.406ZM680.814 353.966L682.071 350.04L684.564 353.305L680.814 353.966ZM710.873 341.68C710.318 338.528 707.371 335.084 702.328 335.973C699.398 336.49 698.043 336.729 697.444 336.834L692.528 337.701L696.14 358.185L701.056 357.318L699.905 350.795C700.599 350.673 701.387 350.534 702.237 350.384L707.674 356.151L713.189 355.179L707.543 348.961C710.589 347.254 711.279 343.98 710.873 341.68ZM698.222 341.246L703.106 340.385C704.146 340.202 704.916 340.326 705.488 340.81C706.087 341.257 706.372 341.954 706.461 342.458C706.545 342.931 706.515 343.683 706.168 344.297C706.018 344.551 705.794 344.753 705.538 344.96C705.162 345.222 704.611 345.416 703.981 345.527L699.128 346.383L698.222 341.246ZM733.149 335.088L732.371 330.676L724.618 332.043L722.16 332.476L719.702 332.91L723.314 353.394L728.23 352.527L726.813 344.491L732.58 343.474L731.802 339.062L726.035 340.079L725.396 336.455L733.149 335.088ZM743.067 328.887C737.237 329.915 733.344 335.476 734.372 341.306C735.4 347.136 740.96 351.029 746.79 350.001C752.621 348.973 756.514 343.413 755.486 337.583C754.458 331.753 748.897 327.859 743.067 328.887ZM750.045 343.026C749.079 344.366 747.651 345.3 746.013 345.589C744.374 345.878 742.713 345.489 741.347 344.56C739.975 343.6 739.073 342.166 738.784 340.528C738.495 338.889 738.853 337.234 739.813 335.862C740.774 334.491 742.207 333.588 743.845 333.299C745.484 333.01 747.139 333.368 748.511 334.328C749.883 335.289 750.785 336.722 751.074 338.361C751.363 339.999 751.005 341.655 750.045 343.026ZM773.378 330.659C772.822 327.507 769.875 324.063 764.833 324.952C761.902 325.469 760.547 325.707 759.948 325.813L755.032 326.68L758.644 347.164L763.56 346.297L762.41 339.774C763.103 339.651 763.891 339.512 764.742 339.362L770.178 345.13L775.693 344.158L770.048 337.94C773.093 336.233 773.783 332.959 773.378 330.659ZM760.726 330.225L765.611 329.364C766.651 329.18 767.42 329.305 767.993 329.789C768.592 330.235 768.877 330.932 768.966 331.437C769.049 331.909 769.019 332.662 768.673 333.275C768.523 333.529 768.298 333.731 768.042 333.939C767.666 334.2 767.115 334.395 766.485 334.506L761.632 335.362L760.726 330.225ZM796.928 340.413L802.6 339.413L787.99 320.869L780.572 343.297L786.245 342.297L787.22 339.168L794.941 337.807L796.928 340.413ZM788.527 334.973L789.785 331.048L792.278 334.312L788.527 334.973ZM807.529 333.995L804.696 317.923L799.779 318.79L803.391 339.274L808.276 338.412L808.307 338.407L818.171 336.668L817.393 332.256L807.529 333.995ZM815.925 315.943L819.537 336.427L824.453 335.56L820.841 315.076L815.925 315.943ZM829.356 326.41L837.329 325.004L836.551 320.592L828.578 321.998L827.939 318.373L837.331 316.718L836.553 312.306L822.245 314.828L825.857 335.312L840.164 332.79L839.387 328.378L829.995 330.034L829.356 326.41ZM851.826 309.612L853.671 320.075L838.244 312.007L841.856 332.491L846.772 331.625L845.011 321.635L860.355 329.23L856.743 308.746L851.826 309.612ZM870.406 327.49C872.139 327.184 873.555 326.739 874.68 326.119C875.774 325.503 876.614 324.738 877.168 323.828C878.257 322.076 877.962 320.406 877.846 319.744C877.607 318.389 876.912 317.212 875.809 316.302C874.139 314.939 871.666 314.368 868.485 314.571C865.625 314.75 864.099 314.207 863.866 312.884C863.621 311.497 865.649 310.652 867.477 310.33C869.242 310.018 870.597 310.332 871.383 311.103C872.004 311.676 872.139 312.627 872.139 312.627L872.133 312.595L876.451 311.834C876.395 311.519 875.993 309.608 874.627 308.127C873.347 306.76 870.939 305.268 866.716 306.012C863.502 306.579 861.32 307.841 860.159 309.735C859.63 310.608 859.102 312.034 859.441 313.956C859.685 315.343 860.375 316.488 861.504 317.362C862.293 317.97 863.281 318.413 864.43 318.665C865.648 318.938 867.128 319.035 868.768 318.94C871.434 318.763 873.18 319.267 873.402 320.528C873.613 321.725 872.481 322.672 869.644 323.172C867.943 323.472 866.693 323.205 865.896 322.371C865.259 321.704 865.053 320.538 865.053 320.538L865.059 320.569L860.73 321.267C860.78 321.551 860.982 324.537 863.766 326.321C864.639 326.849 865.564 327.304 866.644 327.536C867.788 327.756 869.05 327.729 870.406 327.49Z" fill="black"/>
<path d="M109.833 460.688L115.505 459.688L100.895 441.143L93.4768 463.572L99.1493 462.572L100.125 459.443L107.846 458.082L109.833 460.688ZM101.432 455.248L102.69 451.322L105.182 454.587L101.432 455.248ZM127.605 453.005L124.771 436.933L119.855 437.8L123.467 458.284L128.351 457.423L128.383 457.417L138.247 455.678L137.469 451.266L127.605 453.005ZM136.001 434.953L139.613 455.437L144.529 454.57L140.917 434.086L136.001 434.953ZM158.755 436.01L157.889 431.094L142.321 433.839L143.188 438.755L148.513 437.816L151.258 453.384L156.175 452.517L153.43 436.949L158.755 436.01ZM175.928 432.982L175.061 428.066L159.493 430.811L160.36 435.727L165.686 434.788L168.431 450.356L173.347 449.489L170.602 433.921L175.928 432.982ZM184.416 442.988L181.582 426.916L176.666 427.783L180.278 448.267L185.162 447.406L185.194 447.4L195.058 445.661L194.28 441.249L184.416 442.988ZM199.872 436.526L207.845 435.12L207.067 430.708L199.094 432.114L198.455 428.49L207.847 426.834L207.069 422.422L192.761 424.945L196.373 445.429L210.681 442.906L209.903 438.494L200.511 440.15L199.872 436.526ZM234.166 426.937C234.166 426.937 235.459 424.5 234.102 421.782C232.23 417.985 227.566 418.808 227.566 418.808L218.081 420.48L221.693 440.964L232.817 439.003C232.817 439.003 238.627 437.491 237.671 432.071C236.888 427.627 234.166 426.937 234.166 426.937ZM223.669 423.427L228.05 422.654C229.31 422.432 230.528 423.257 230.756 424.549C230.978 425.81 230.116 427.002 228.855 427.224L224.475 427.996L223.669 423.427ZM233.799 432.591C234.021 433.852 233.19 435.038 231.93 435.26L225.942 436.316L225.136 431.746L231.124 430.691C232.384 430.468 233.576 431.33 233.799 432.591ZM253.214 435.406L258.887 434.406L244.277 415.861L236.859 438.29L242.531 437.29L243.507 434.161L251.228 432.8L253.214 435.406ZM244.814 429.966L246.071 426.04L248.564 429.305L244.814 429.966ZM274.873 417.68C274.318 414.528 271.371 411.084 266.328 411.973C263.398 412.49 262.043 412.729 261.444 412.834L256.528 413.701L260.14 434.185L265.056 433.318L263.905 426.795C264.599 426.673 265.387 426.534 266.237 426.384L271.674 432.151L277.189 431.179L271.543 424.961C274.589 423.254 275.279 419.98 274.873 417.68ZM262.222 417.246L267.106 416.385C268.146 416.202 268.916 416.326 269.488 416.81C270.087 417.257 270.372 417.954 270.461 418.458C270.545 418.931 270.515 419.683 270.168 420.297C270.018 420.551 269.794 420.753 269.538 420.96C269.162 421.222 268.611 421.416 267.981 421.527L263.128 422.383L262.222 417.246ZM297.149 411.088L296.371 406.676L288.618 408.043L286.16 408.476L283.702 408.91L287.314 429.394L292.23 428.527L290.813 420.491L296.58 419.474L295.802 415.062L290.035 416.079L289.396 412.455L297.149 411.088ZM307.067 404.887C301.237 405.915 297.344 411.476 298.372 417.306C299.4 423.136 304.96 427.029 310.79 426.001C316.621 424.973 320.514 419.413 319.486 413.583C318.458 407.753 312.897 403.859 307.067 404.887ZM314.045 419.026C313.079 420.366 311.651 421.3 310.013 421.589C308.374 421.878 306.713 421.489 305.347 420.56C303.975 419.6 303.073 418.166 302.784 416.528C302.495 414.889 302.853 413.234 303.813 411.862C304.774 410.491 306.207 409.588 307.845 409.299C309.484 409.01 311.139 409.368 312.511 410.328C313.883 411.289 314.785 412.722 315.074 414.361C315.363 415.999 315.005 417.655 314.045 419.026ZM337.378 406.659C336.822 403.507 333.875 400.063 328.833 400.952C325.902 401.469 324.547 401.707 323.948 401.813L319.032 402.68L322.644 423.164L327.56 422.297L326.41 415.774C327.103 415.651 327.891 415.512 328.742 415.362L334.178 421.13L339.693 420.158L334.048 413.94C337.093 412.233 337.783 408.959 337.378 406.659ZM324.726 406.225L329.611 405.364C330.651 405.18 331.42 405.305 331.993 405.789C332.592 406.235 332.877 406.932 332.966 407.437C333.049 407.909 333.019 408.662 332.673 409.275C332.523 409.529 332.298 409.731 332.042 409.939C331.666 410.2 331.115 410.395 330.485 410.506L325.632 411.362L324.726 406.225ZM360.928 416.413L366.6 415.413L351.99 396.869L344.572 419.297L350.245 418.297L351.22 415.168L358.941 413.807L360.928 416.413ZM352.527 410.973L353.785 407.048L356.278 410.312L352.527 410.973ZM371.529 409.995L368.696 393.923L363.779 394.79L367.391 415.274L372.276 414.412L372.307 414.407L382.171 412.668L381.393 408.256L371.529 409.995ZM379.925 391.943L383.537 412.427L388.453 411.56L384.841 391.076L379.925 391.943ZM393.356 402.41L401.329 401.004L400.551 396.592L392.578 397.998L391.939 394.373L401.331 392.718L400.553 388.306L386.245 390.828L389.857 411.312L404.164 408.79L403.387 404.378L393.995 406.034L393.356 402.41ZM415.826 385.612L417.671 396.075L402.244 388.007L405.856 408.491L410.772 407.625L409.011 397.635L424.355 405.23L420.743 384.746L415.826 385.612ZM434.406 403.49C436.139 403.184 437.555 402.739 438.68 402.119C439.774 401.503 440.614 400.738 441.168 399.828C442.257 398.076 441.962 396.406 441.846 395.744C441.607 394.389 440.912 393.212 439.809 392.302C438.139 390.939 435.666 390.368 432.485 390.571C429.625 390.75 428.099 390.207 427.866 388.884C427.621 387.497 429.649 386.652 431.477 386.33C433.242 386.018 434.597 386.332 435.383 387.103C436.004 387.676 436.139 388.627 436.139 388.627L436.133 388.595L440.451 387.834C440.395 387.519 439.993 385.608 438.627 384.127C437.347 382.76 434.939 381.268 430.716 382.012C427.502 382.579 425.32 383.841 424.159 385.735C423.63 386.608 423.102 388.034 423.441 389.956C423.685 391.343 424.375 392.488 425.504 393.362C426.293 393.97 427.281 394.413 428.43 394.665C429.648 394.938 431.128 395.035 432.768 394.94C435.434 394.763 437.18 395.267 437.402 396.528C437.613 397.725 436.481 398.672 433.644 399.172C431.943 399.472 430.693 399.205 429.896 398.371C429.259 397.704 429.053 396.538 429.053 396.538L429.059 396.569L424.73 397.267C424.78 397.551 424.982 400.537 427.766 402.321C428.639 402.849 429.564 403.304 430.644 403.536C431.788 403.756 433.05 403.729 434.406 403.49Z" fill="black"/>
<path d="M958.833 311.688L964.505 310.688L949.895 292.143L942.477 314.572L948.149 313.572L949.125 310.443L956.846 309.082L958.833 311.688ZM950.432 306.248L951.69 302.322L954.182 305.587L950.432 306.248ZM976.605 304.005L973.771 287.933L968.855 288.8L972.467 309.284L977.351 308.423L977.383 308.417L987.247 306.678L986.469 302.266L976.605 304.005ZM985.001 285.953L988.613 306.437L993.529 305.57L989.917 285.086L985.001 285.953ZM1007.76 287.01L1006.89 282.094L991.321 284.839L992.188 289.755L997.513 288.816L1000.26 304.384L1005.17 303.517L1002.43 287.949L1007.76 287.01ZM1024.93 283.982L1024.06 279.066L1008.49 281.811L1009.36 286.727L1014.69 285.788L1017.43 301.356L1022.35 300.489L1019.6 284.921L1024.93 283.982ZM1033.42 293.988L1030.58 277.916L1025.67 278.783L1029.28 299.267L1034.16 298.406L1034.19 298.4L1044.06 296.661L1043.28 292.249L1033.42 293.988ZM1048.87 287.526L1056.85 286.12L1056.07 281.708L1048.09 283.114L1047.46 279.49L1056.85 277.834L1056.07 273.422L1041.76 275.945L1045.37 296.429L1059.68 293.906L1058.9 289.494L1049.51 291.15L1048.87 287.526ZM1083.17 277.937C1083.17 277.937 1084.46 275.5 1083.1 272.782C1081.23 268.985 1076.57 269.808 1076.57 269.808L1067.08 271.48L1070.69 291.964L1081.82 290.003C1081.82 290.003 1087.63 288.491 1086.67 283.071C1085.89 278.627 1083.17 277.937 1083.17 277.937ZM1072.67 274.427L1077.05 273.654C1078.31 273.432 1079.53 274.257 1079.76 275.549C1079.98 276.81 1079.12 278.002 1077.86 278.224L1073.48 278.996L1072.67 274.427ZM1082.8 283.591C1083.02 284.852 1082.19 286.038 1080.93 286.26L1074.94 287.316L1074.14 282.746L1080.12 281.691C1081.38 281.468 1082.58 282.33 1082.8 283.591ZM1102.21 286.406L1107.89 285.406L1093.28 266.861L1085.86 289.29L1091.53 288.29L1092.51 285.161L1100.23 283.8L1102.21 286.406ZM1093.81 280.966L1095.07 277.04L1097.56 280.305L1093.81 280.966ZM1123.87 268.68C1123.32 265.528 1120.37 262.084 1115.33 262.973C1112.4 263.49 1111.04 263.729 1110.44 263.834L1105.53 264.701L1109.14 285.185L1114.06 284.318L1112.91 277.795C1113.6 277.673 1114.39 277.534 1115.24 277.384L1120.67 283.151L1126.19 282.179L1120.54 275.961C1123.59 274.254 1124.28 270.98 1123.87 268.68ZM1111.22 268.246L1116.11 267.385C1117.15 267.202 1117.92 267.326 1118.49 267.81C1119.09 268.257 1119.37 268.954 1119.46 269.458C1119.54 269.931 1119.51 270.683 1119.17 271.297C1119.02 271.551 1118.79 271.753 1118.54 271.96C1118.16 272.222 1117.61 272.416 1116.98 272.527L1112.13 273.383L1111.22 268.246ZM1146.15 262.088L1145.37 257.676L1137.62 259.043L1135.16 259.476L1132.7 259.91L1136.31 280.394L1141.23 279.527L1139.81 271.491L1145.58 270.474L1144.8 266.062L1139.04 267.079L1138.4 263.455L1146.15 262.088ZM1156.07 255.887C1150.24 256.915 1146.34 262.476 1147.37 268.306C1148.4 274.136 1153.96 278.029 1159.79 277.001C1165.62 275.973 1169.51 270.413 1168.49 264.583C1167.46 258.753 1161.9 254.859 1156.07 255.887ZM1163.04 270.026C1162.08 271.366 1160.65 272.3 1159.01 272.589C1157.37 272.878 1155.71 272.489 1154.35 271.56C1152.98 270.6 1152.07 269.166 1151.78 267.528C1151.49 265.889 1151.85 264.234 1152.81 262.862C1153.77 261.491 1155.21 260.588 1156.85 260.299C1158.48 260.01 1160.14 260.368 1161.51 261.328C1162.88 262.289 1163.79 263.722 1164.07 265.361C1164.36 266.999 1164.01 268.655 1163.04 270.026ZM1186.38 257.659C1185.82 254.507 1182.88 251.063 1177.83 251.952C1174.9 252.469 1173.55 252.707 1172.95 252.813L1168.03 253.68L1171.64 274.164L1176.56 273.297L1175.41 266.774C1176.1 266.651 1176.89 266.512 1177.74 266.362L1183.18 272.13L1188.69 271.158L1183.05 264.94C1186.09 263.233 1186.78 259.959 1186.38 257.659ZM1173.73 257.225L1178.61 256.364C1179.65 256.18 1180.42 256.305 1180.99 256.789C1181.59 257.235 1181.88 257.932 1181.97 258.437C1182.05 258.909 1182.02 259.662 1181.67 260.275C1181.52 260.529 1181.3 260.731 1181.04 260.939C1180.67 261.2 1180.12 261.395 1179.49 261.506L1174.63 262.362L1173.73 257.225ZM1209.93 267.413L1215.6 266.413L1200.99 247.869L1193.57 270.297L1199.24 269.297L1200.22 266.168L1207.94 264.807L1209.93 267.413ZM1201.53 261.973L1202.78 258.048L1205.28 261.312L1201.53 261.973ZM1220.53 260.995L1217.7 244.923L1212.78 245.79L1216.39 266.274L1221.28 265.412L1221.31 265.407L1231.17 263.668L1230.39 259.256L1220.53 260.995ZM1228.93 242.943L1232.54 263.427L1237.45 262.56L1233.84 242.076L1228.93 242.943ZM1242.36 253.41L1250.33 252.004L1249.55 247.592L1241.58 248.998L1240.94 245.373L1250.33 243.718L1249.55 239.306L1235.25 241.828L1238.86 262.312L1253.16 259.79L1252.39 255.378L1243 257.034L1242.36 253.41ZM1264.83 236.612L1266.67 247.075L1251.24 239.007L1254.86 259.491L1259.77 258.625L1258.01 248.635L1273.35 256.23L1269.74 235.746L1264.83 236.612ZM1283.41 254.49C1285.14 254.184 1286.56 253.739 1287.68 253.119C1288.77 252.503 1289.61 251.738 1290.17 250.828C1291.26 249.076 1290.96 247.406 1290.85 246.744C1290.61 245.389 1289.91 244.212 1288.81 243.302C1287.14 241.939 1284.67 241.368 1281.49 241.571C1278.62 241.75 1277.1 241.207 1276.87 239.884C1276.62 238.497 1278.65 237.652 1280.48 237.33C1282.24 237.018 1283.6 237.332 1284.38 238.103C1285 238.676 1285.14 239.627 1285.14 239.627L1285.13 239.595L1289.45 238.834C1289.4 238.519 1288.99 236.608 1287.63 235.127C1286.35 233.76 1283.94 232.268 1279.72 233.012C1276.5 233.579 1274.32 234.841 1273.16 236.735C1272.63 237.608 1272.1 239.034 1272.44 240.956C1272.69 242.343 1273.37 243.488 1274.5 244.362C1275.29 244.97 1276.28 245.413 1277.43 245.665C1278.65 245.938 1280.13 246.035 1281.77 245.94C1284.43 245.763 1286.18 246.267 1286.4 247.528C1286.61 248.725 1285.48 249.672 1282.64 250.172C1280.94 250.472 1279.69 250.205 1278.9 249.371C1278.26 248.704 1278.05 247.538 1278.05 247.538L1278.06 247.569L1273.73 248.267C1273.78 248.551 1273.98 251.537 1276.77 253.321C1277.64 253.849 1278.56 254.304 1279.64 254.536C1280.79 254.756 1282.05 254.729 1283.41 254.49Z" fill="black"/>
<path d="M1397.83 232.688L1403.51 231.688L1388.89 213.143L1381.48 235.572L1387.15 234.572L1388.12 231.443L1395.85 230.082L1397.83 232.688ZM1389.43 227.248L1390.69 223.322L1393.18 226.587L1389.43 227.248ZM1415.6 225.005L1412.77 208.933L1407.85 209.8L1411.47 230.284L1416.35 229.423L1416.38 229.417L1426.25 227.678L1425.47 223.266L1415.6 225.005ZM1424 206.953L1427.61 227.437L1432.53 226.57L1428.92 206.086L1424 206.953ZM1446.76 208.01L1445.89 203.094L1430.32 205.839L1431.19 210.755L1436.51 209.816L1439.26 225.384L1444.17 224.517L1441.43 208.949L1446.76 208.01ZM1463.93 204.982L1463.06 200.066L1447.49 202.811L1448.36 207.727L1453.69 206.788L1456.43 222.356L1461.35 221.489L1458.6 205.921L1463.93 204.982ZM1472.42 214.988L1469.58 198.916L1464.67 199.783L1468.28 220.267L1473.16 219.406L1473.19 219.4L1483.06 217.661L1482.28 213.249L1472.42 214.988ZM1487.87 208.526L1495.85 207.12L1495.07 202.708L1487.09 204.114L1486.46 200.49L1495.85 198.834L1495.07 194.422L1480.76 196.945L1484.37 217.429L1498.68 214.906L1497.9 210.494L1488.51 212.15L1487.87 208.526ZM1522.17 198.937C1522.17 198.937 1523.46 196.5 1522.1 193.782C1520.23 189.985 1515.57 190.808 1515.57 190.808L1506.08 192.48L1509.69 212.964L1520.82 211.003C1520.82 211.003 1526.63 209.491 1525.67 204.071C1524.89 199.627 1522.17 198.937 1522.17 198.937ZM1511.67 195.427L1516.05 194.654C1517.31 194.432 1518.53 195.257 1518.76 196.549C1518.98 197.81 1518.12 199.002 1516.86 199.224L1512.48 199.996L1511.67 195.427ZM1521.8 204.591C1522.02 205.852 1521.19 207.038 1519.93 207.26L1513.94 208.316L1513.14 203.746L1519.12 202.691C1520.38 202.468 1521.58 203.33 1521.8 204.591ZM1541.21 207.406L1546.89 206.406L1532.28 187.861L1524.86 210.29L1530.53 209.29L1531.51 206.161L1539.23 204.8L1541.21 207.406ZM1532.81 201.966L1534.07 198.04L1536.56 201.305L1532.81 201.966ZM1562.87 189.68C1562.32 186.528 1559.37 183.084 1554.33 183.973C1551.4 184.49 1550.04 184.729 1549.44 184.834L1544.53 185.701L1548.14 206.185L1553.06 205.318L1551.91 198.795C1552.6 198.673 1553.39 198.534 1554.24 198.384L1559.67 204.151L1565.19 203.179L1559.54 196.961C1562.59 195.254 1563.28 191.98 1562.87 189.68ZM1550.22 189.246L1555.11 188.385C1556.15 188.202 1556.92 188.326 1557.49 188.81C1558.09 189.257 1558.37 189.954 1558.46 190.458C1558.54 190.931 1558.51 191.683 1558.17 192.297C1558.02 192.551 1557.79 192.753 1557.54 192.96C1557.16 193.222 1556.61 193.416 1555.98 193.527L1551.13 194.383L1550.22 189.246ZM1585.15 183.088L1584.37 178.676L1576.62 180.043L1574.16 180.476L1571.7 180.91L1575.31 201.394L1580.23 200.527L1578.81 192.491L1584.58 191.474L1583.8 187.062L1578.04 188.079L1577.4 184.455L1585.15 183.088ZM1595.07 176.887C1589.24 177.915 1585.34 183.476 1586.37 189.306C1587.4 195.136 1592.96 199.029 1598.79 198.001C1604.62 196.973 1608.51 191.413 1607.49 185.583C1606.46 179.753 1600.9 175.859 1595.07 176.887ZM1602.04 191.026C1601.08 192.366 1599.65 193.3 1598.01 193.589C1596.37 193.878 1594.71 193.489 1593.35 192.56C1591.98 191.6 1591.07 190.166 1590.78 188.528C1590.49 186.889 1590.85 185.234 1591.81 183.862C1592.77 182.491 1594.21 181.588 1595.85 181.299C1597.48 181.01 1599.14 181.368 1600.51 182.328C1601.88 183.289 1602.79 184.722 1603.07 186.361C1603.36 187.999 1603.01 189.655 1602.04 191.026ZM1625.38 178.659C1624.82 175.507 1621.88 172.063 1616.83 172.952C1613.9 173.469 1612.55 173.707 1611.95 173.813L1607.03 174.68L1610.64 195.164L1615.56 194.297L1614.41 187.774C1615.1 187.651 1615.89 187.512 1616.74 187.362L1622.18 193.13L1627.69 192.158L1622.05 185.94C1625.09 184.233 1625.78 180.959 1625.38 178.659ZM1612.73 178.225L1617.61 177.364C1618.65 177.18 1619.42 177.305 1619.99 177.789C1620.59 178.235 1620.88 178.932 1620.97 179.437C1621.05 179.909 1621.02 180.662 1620.67 181.275C1620.52 181.529 1620.3 181.731 1620.04 181.939C1619.67 182.2 1619.12 182.395 1618.49 182.506L1613.63 183.362L1612.73 178.225ZM1648.93 188.413L1654.6 187.413L1639.99 168.869L1632.57 191.297L1638.24 190.297L1639.22 187.168L1646.94 185.807L1648.93 188.413ZM1640.53 182.973L1641.78 179.048L1644.28 182.312L1640.53 182.973ZM1659.53 181.995L1656.7 165.923L1651.78 166.79L1655.39 187.274L1660.28 186.412L1660.31 186.407L1670.17 184.668L1669.39 180.256L1659.53 181.995ZM1667.93 163.943L1671.54 184.427L1676.45 183.56L1672.84 163.076L1667.93 163.943ZM1681.36 174.41L1689.33 173.004L1688.55 168.592L1680.58 169.998L1679.94 166.373L1689.33 164.718L1688.55 160.306L1674.25 162.828L1677.86 183.312L1692.16 180.79L1691.39 176.378L1682 178.034L1681.36 174.41ZM1703.83 157.612L1705.67 168.075L1690.24 160.007L1693.86 180.491L1698.77 179.625L1697.01 169.635L1712.35 177.23L1708.74 156.746L1703.83 157.612ZM1722.41 175.49C1724.14 175.184 1725.56 174.739 1726.68 174.119C1727.77 173.503 1728.61 172.738 1729.17 171.828C1730.26 170.076 1729.96 168.406 1729.85 167.744C1729.61 166.389 1728.91 165.212 1727.81 164.302C1726.14 162.939 1723.67 162.368 1720.49 162.571C1717.62 162.75 1716.1 162.207 1715.87 160.884C1715.62 159.497 1717.65 158.652 1719.48 158.33C1721.24 158.018 1722.6 158.332 1723.38 159.103C1724 159.676 1724.14 160.627 1724.14 160.627L1724.13 160.595L1728.45 159.834C1728.4 159.519 1727.99 157.608 1726.63 156.127C1725.35 154.76 1722.94 153.268 1718.72 154.012C1715.5 154.579 1713.32 155.841 1712.16 157.735C1711.63 158.608 1711.1 160.034 1711.44 161.956C1711.69 163.343 1712.37 164.488 1713.5 165.362C1714.29 165.97 1715.28 166.413 1716.43 166.665C1717.65 166.938 1719.13 167.035 1720.77 166.94C1723.43 166.763 1725.18 167.267 1725.4 168.528C1725.61 169.725 1724.48 170.672 1721.64 171.172C1719.94 171.472 1718.69 171.205 1717.9 170.371C1717.26 169.704 1717.05 168.538 1717.05 168.538L1717.06 168.569L1712.73 169.267C1712.78 169.551 1712.98 172.537 1715.77 174.321C1716.64 174.849 1717.56 175.304 1718.64 175.536C1719.79 175.756 1721.05 175.729 1722.41 175.49Z" fill="black"/>
<path d="M-311.162 534.688L-305.489 533.688L-320.099 515.143L-327.517 537.572L-321.845 536.572L-320.869 533.443L-313.148 532.082L-311.162 534.688ZM-319.562 529.248L-318.305 525.322L-315.812 528.587L-319.562 529.248ZM-293.389 527.005L-296.223 510.933L-301.139 511.8L-297.527 532.284L-292.643 531.423L-292.611 531.417L-282.747 529.678L-283.525 525.266L-293.389 527.005ZM-284.993 508.953L-281.382 529.437L-276.465 528.57L-280.077 508.086L-284.993 508.953ZM-262.239 510.01L-263.106 505.094L-278.673 507.839L-277.807 512.755L-272.481 511.816L-269.736 527.384L-264.82 526.517L-267.565 510.949L-262.239 510.01ZM-245.066 506.982L-245.933 502.066L-261.501 504.811L-260.634 509.727L-255.308 508.788L-252.563 524.356L-247.647 523.489L-250.392 507.921L-245.066 506.982ZM-236.578 516.988L-239.412 500.916L-244.328 501.783L-240.716 522.267L-235.832 521.406L-235.8 521.4L-225.936 519.661L-226.714 515.249L-236.578 516.988ZM-221.122 510.526L-213.149 509.12L-213.927 504.708L-221.9 506.114L-222.539 502.49L-213.148 500.834L-213.925 496.422L-228.233 498.945L-224.621 519.429L-210.314 516.906L-211.092 512.494L-220.483 514.15L-221.122 510.526ZM-186.828 500.937C-186.828 500.937 -185.535 498.5 -186.892 495.782C-188.764 491.985 -193.428 492.808 -193.428 492.808L-202.913 494.48L-199.301 514.964L-188.177 513.003C-188.177 513.003 -182.367 511.491 -183.323 506.071C-184.107 501.627 -186.828 500.937 -186.828 500.937ZM-197.325 497.427L-192.944 496.654C-191.684 496.432 -190.466 497.257 -190.238 498.549C-190.016 499.81 -190.878 501.002 -192.139 501.224L-196.519 501.996L-197.325 497.427ZM-187.196 506.591C-186.973 507.852 -187.804 509.038 -189.065 509.26L-195.052 510.316L-195.858 505.746L-189.87 504.691C-188.61 504.468 -187.418 505.33 -187.196 506.591ZM-167.78 509.406L-162.107 508.406L-176.717 489.861L-184.135 512.29L-178.463 511.29L-177.487 508.161L-169.767 506.8L-167.78 509.406ZM-176.18 503.966L-174.923 500.04L-172.43 503.305L-176.18 503.966ZM-146.121 491.68C-146.677 488.528 -149.623 485.084 -154.666 485.973C-157.596 486.49 -158.952 486.729 -159.55 486.834L-164.466 487.701L-160.855 508.185L-155.938 507.318L-157.089 500.795C-156.395 500.673 -155.608 500.534 -154.757 500.384L-149.321 506.151L-143.806 505.179L-149.451 498.961C-146.405 497.254 -145.715 493.98 -146.121 491.68ZM-158.772 491.246L-153.888 490.385C-152.848 490.202 -152.079 490.326 -151.506 490.81C-150.907 491.257 -150.622 491.954 -150.533 492.458C-150.449 492.931 -150.479 493.683 -150.826 494.297C-150.976 494.551 -151.2 494.753 -151.456 494.96C-151.833 495.222 -152.383 495.416 -153.013 495.527L-157.867 496.383L-158.772 491.246ZM-123.845 485.088L-124.623 480.676L-132.376 482.043L-134.834 482.476L-137.292 482.91L-133.68 503.394L-128.764 502.527L-130.181 494.491L-124.414 493.474L-125.192 489.062L-130.959 490.079L-131.598 486.455L-123.845 485.088ZM-113.927 478.887C-119.757 479.915 -123.65 485.476 -122.622 491.306C-121.594 497.136 -116.034 501.029 -110.204 500.001C-104.374 498.973 -100.48 493.413 -101.508 487.583C-102.536 481.753 -108.097 477.859 -113.927 478.887ZM-106.949 493.026C-107.915 494.366 -109.343 495.3 -110.982 495.589C-112.62 495.878 -114.281 495.489 -115.647 494.56C-117.019 493.6 -117.921 492.166 -118.21 490.528C-118.499 488.889 -118.141 487.234 -117.181 485.862C-116.221 484.491 -114.787 483.588 -113.149 483.299C-111.51 483.01 -109.855 483.368 -108.483 484.328C-107.112 485.289 -106.209 486.722 -105.92 488.361C-105.631 489.999 -105.989 491.655 -106.949 493.026ZM-83.6164 480.659C-84.172 477.507 -87.1189 474.063 -92.1612 474.952C-95.0919 475.469 -96.447 475.707 -97.0458 475.813L-101.962 476.68L-98.3501 497.164L-93.4339 496.297L-94.5842 489.774C-93.8909 489.651 -93.103 489.512 -92.2521 489.362L-86.816 495.13L-81.3011 494.158L-86.9466 487.94C-83.9007 486.233 -83.2107 482.959 -83.6164 480.659ZM-96.2679 480.225L-91.3832 479.364C-90.3433 479.18 -89.574 479.305 -89.0013 479.789C-88.4026 480.235 -88.1172 480.932 -88.0283 481.437C-87.9449 481.909 -87.9747 482.662 -88.3214 483.275C-88.4716 483.529 -88.6959 483.731 -88.9518 483.939C-89.3281 484.2 -89.8787 484.395 -90.509 484.506L-95.3621 485.362L-96.2679 480.225ZM-60.0664 490.413L-54.3939 489.413L-69.0041 470.869L-76.4221 493.297L-70.7496 492.297L-69.7741 489.168L-62.0532 487.807L-60.0664 490.413ZM-68.4667 484.973L-67.2093 481.048L-64.7165 484.312L-68.4667 484.973ZM-49.4647 483.995L-52.2986 467.923L-57.2148 468.79L-53.6029 489.274L-48.7182 488.412L-48.6867 488.407L-38.8229 486.668L-39.6008 482.256L-49.4647 483.995ZM-41.0688 465.943L-37.457 486.427L-32.5408 485.56L-36.1527 465.076L-41.0688 465.943ZM-27.6378 476.41L-19.6648 475.004L-20.4427 470.592L-28.4157 471.998L-29.0547 468.373L-19.6636 466.718L-20.4416 462.306L-34.7488 464.828L-31.137 485.312L-16.8297 482.79L-17.6076 478.378L-26.9987 480.034L-27.6378 476.41ZM-5.16768 459.612L-3.32284 470.075L-18.7501 462.007L-15.1383 482.491L-10.2221 481.625L-11.9836 471.635L3.36037 479.23L-0.251517 458.746L-5.16768 459.612ZM13.4115 477.49C15.1447 477.184 16.561 476.739 17.6863 476.119C18.7801 475.503 19.6199 474.738 20.1743 473.828C21.2627 472.076 20.9682 470.406 20.8515 469.744C20.6125 468.389 19.9176 467.212 18.8147 466.302C17.1447 464.939 14.672 464.368 11.491 464.571C8.63066 464.75 7.10513 464.207 6.87174 462.884C6.62725 461.497 8.65532 460.652 10.4831 460.33C12.2479 460.018 13.6029 460.332 14.3888 461.103C15.0097 461.676 15.1449 462.627 15.1449 462.627L15.1393 462.595L19.4567 461.834C19.4012 461.519 18.9992 459.608 17.6332 458.127C16.3525 456.76 13.9447 455.268 9.72185 456.012C6.50744 456.579 4.32545 457.841 3.16476 459.735C2.63633 460.608 2.10783 462.034 2.44679 463.956C2.69129 465.343 3.38071 466.488 4.50949 467.362C5.29909 467.97 6.28706 468.413 7.43632 468.665C8.65417 468.938 10.1334 469.035 11.774 468.94C14.4396 468.763 16.1857 469.267 16.408 470.528C16.6192 471.725 15.4864 472.672 12.6502 473.172C10.9484 473.472 9.69907 473.205 8.90209 472.371C8.26451 471.704 8.05891 470.538 8.05891 470.538L8.06446 470.569L3.73595 471.267C3.78596 471.551 3.9876 474.537 6.77163 476.321C7.64465 476.849 8.56959 477.304 9.65027 477.536C10.794 477.756 12.0564 477.729 13.4115 477.49Z" fill="black"/>
</svg>
