<svg width="147" height="41" viewBox="0 0 147 41" fill="none" xmlns="http://www.w3.org/2000/svg">
<path d="M0 7.7752L3.80418 40.5153H6.69921L4.12416 13.6059L10.7469 40.5153H13.6161L21.3529 1.33222L13.7187 0L12.1302 36.5318L6.0331 7.12204L0 7.7752Z" fill="#37F4A6"/>
<path d="M62.398 24.8055L61.4697 36.9467H57.0288L55.0436 24.8055H62.398ZM55.0436 40.5151H63.1393L65.6379 21.2372H51.8037L55.0436 40.5151Z" fill="#37F4A6"/>
<path d="M68.8774 36.9469L69.8057 24.8057H74.2466L76.232 36.9469H68.8774ZM76.232 21.2374H68.1363L65.6377 40.5153H79.4717L76.232 21.2374Z" fill="#37F4A6"/>
<path d="M91.0522 15.2726L91.7943 18.5396H100.958L102.567 40.1466H99.4066L98.4579 21.8391L92.2502 22.0233L93.7436 31.6188L90.9422 31.711L88.5322 18.9107L82.5011 19.1198L86.5401 40.1466H82.4837L78.8804 18.7837L68.4844 18.7421L68.8773 15.7285L91.0522 15.2726Z" fill="#37F4A6"/>
<path d="M132.856 19.8635L131.116 40.1456H128.573L129.487 23.3422L121.702 22.3743L124.473 35.1681H121.261L117.771 17.9319L132.856 19.8635Z" fill="#37F4A6"/>
<path d="M20.2701 37.2504L23.6417 18.171L30.2207 17.7601L32.8254 36.9225L20.2701 37.2504ZM32.6884 14.8815L21.3516 15.4568L16.0742 40.515H36.7175L32.6884 14.8815Z" fill="#37F4A6"/>
<path d="M23.7235 17.7601L33.7162 37.6423L31.3996 38.7595L22.2434 18.8565L23.7235 17.7601Z" fill="#37F4A6"/>
<path d="M29.8685 17.3375L18.8713 37.1147L21.0937 38.679L31.2745 17.8557L29.8685 17.3375Z" fill="#37F4A6"/>
<path d="M66.4296 15.8157L65.9712 18.7466L48.2939 18.8487L52.2906 40.5154H48.9212L47.3303 31.9194L41.1896 32.5992L42.6837 40.5154H39.5984L34.5708 12.571L21.9707 12.7703L22.5183 9.97383L36.4182 9.61774L40.6216 29.626L46.8145 28.7993L44.2773 16.0846L66.4296 15.8157Z" fill="#37F4A6"/>
<path d="M110.891 36.6741H107.256L106.368 21.9225L113.213 22.5903L110.891 36.6741ZM125.164 37.4858H119.213L116.111 19.9378L103.177 18.5135L104.99 40.1478H112.961L114.898 27.6872L116.979 40.1478H125.74L125.164 37.4858Z" fill="#37F4A6"/>
<path d="M147 40.1793L133.69 40.1449L133.929 37.3709L143.769 37.4401L143.135 32.8274L134.43 31.5365L134.213 31.4867L135.117 20.2263L135.396 20.2562L145.066 21.573L145.355 24.9147L137.622 23.598L137.373 28.8845L145.685 30.2028L147 40.1793Z" fill="#37F4A6"/>
</svg>
